<svg width="34" height="34" viewBox="0 0 34 34" fill="none" xmlns="http://www.w3.org/2000/svg">
<path d="M4.06962 27.5974C2.8474 26.0603 1.91915 24.3867 1.28487 22.5765C0.650621 20.7664 0.333496 18.9076 0.333496 17.0002C0.333496 15.0742 0.650621 13.2062 1.28487 11.396C1.91915 9.5858 2.8474 7.91219 4.06962 6.37516C5.73629 7.64369 7.03721 9.21082 7.97237 11.0765C8.90757 12.9423 9.37516 14.9168 9.37516 17.0002C9.37516 19.065 8.90757 21.0302 7.97237 22.896C7.03721 24.7617 5.73629 26.3289 4.06962 27.5974ZM17.0002 33.6668C15.0002 33.6668 13.058 33.3289 11.1738 32.653C9.28951 31.977 7.59737 30.9631 6.09737 29.6113C8.01404 28.0465 9.50479 26.1691 10.5696 23.9793C11.6344 21.7895 12.1668 19.4631 12.1668 17.0002C12.1668 14.5372 11.6344 12.2062 10.5696 10.0071C9.50479 7.80804 8.01404 5.93534 6.09737 4.38904C7.59737 3.03721 9.28951 2.02332 11.1738 1.34737C13.058 0.671455 15.0002 0.333496 17.0002 0.333496C19.0002 0.333496 20.9423 0.671455 22.8265 1.34737C24.7108 2.02332 26.403 3.03721 27.903 4.38904C25.9863 5.93534 24.4955 7.80804 23.4307 10.0071C22.3659 12.2062 21.8335 14.5372 21.8335 17.0002C21.8335 19.4631 22.3659 21.7895 23.4307 23.9793C24.4955 26.1691 25.9863 28.0465 27.903 29.6113C26.403 30.9631 24.7108 31.977 22.8265 32.653C20.9423 33.3289 19.0002 33.6668 17.0002 33.6668ZM29.9307 27.5974C28.264 26.3289 26.9677 24.7617 26.0418 22.896C25.1159 21.0302 24.653 19.065 24.653 17.0002C24.653 14.9168 25.1159 12.9423 26.0418 11.0765C26.9677 9.21082 28.264 7.64369 29.9307 6.37516C31.1529 7.91219 32.0812 9.5858 32.7155 11.396C33.3497 13.2062 33.6668 15.0742 33.6668 17.0002C33.6668 18.9076 33.3497 20.7664 32.7155 22.5765C32.0812 24.3867 31.1529 26.0603 29.9307 27.5974Z" fill="#FAFAFA"/>
</svg>
