<svg width="34" height="34" viewBox="0 0 34 34" fill="none" xmlns="http://www.w3.org/2000/svg">
<path d="M0.424805 15.597C0.508138 14.2544 0.818332 12.8355 1.35539 11.3401C1.89242 9.8447 2.5776 8.51367 3.41093 7.34701C4.90168 8.68034 5.9966 10.0484 6.69568 11.4512C7.39476 12.854 7.84153 14.2359 8.03597 15.597H0.424805ZM26.0359 15.597C26.2303 14.2359 26.6748 12.8563 27.3692 11.4581C28.0637 10.06 29.1609 8.69424 30.6609 7.36088C31.4943 8.5183 32.1794 9.84701 32.7165 11.347C33.2535 12.847 33.5637 14.2637 33.6471 15.597H26.0359ZM3.41093 26.6109C2.5776 25.4535 1.89242 24.1317 1.35539 22.6456C0.818332 21.1595 0.508138 19.7452 0.424805 18.4025H8.03597C7.84153 19.7637 7.39476 21.1387 6.69568 22.5275C5.9966 23.9165 4.90168 25.2776 3.41093 26.6109ZM30.6609 26.6109C29.1609 25.2776 28.0637 23.9165 27.3692 22.5275C26.6748 21.1387 26.2303 19.7637 26.0359 18.4025H33.6471C33.5637 19.7359 33.2535 21.1479 32.7165 22.6387C32.1794 24.1294 31.4943 25.4535 30.6609 26.6109ZM10.8554 15.597C10.6332 13.8007 10.11 12.06 9.28593 10.3748C8.46187 8.68963 7.10539 6.97203 5.21647 5.22201C6.45722 3.99978 7.94565 2.9396 9.68176 2.04146C11.4179 1.14332 13.4017 0.592394 15.6332 0.388672V15.597H10.8554ZM18.4387 15.597V0.388672C20.6702 0.592394 22.6586 1.14332 24.404 2.04146C26.1494 2.9396 27.6424 3.99978 28.8831 5.22201C26.985 6.96276 25.6216 8.67805 24.7929 10.3679C23.9642 12.0577 23.4387 13.8007 23.2165 15.597H18.4387ZM15.6332 33.6109C13.2998 33.4072 11.2906 32.8493 9.60539 31.9373C7.92019 31.0253 6.45722 29.9581 5.21647 28.7359C7.11464 26.9952 8.47344 25.2868 9.29289 23.6109C10.1123 21.935 10.6332 20.1989 10.8554 18.4025H15.6332V33.6109ZM18.4387 33.6109V18.4025H23.2165C23.4387 20.1989 23.9642 21.9373 24.7929 23.6178C25.6216 25.2984 26.985 27.0091 28.8831 28.7498C27.6424 29.972 26.1725 31.0368 24.4734 31.9443C22.7743 32.8516 20.7628 33.4072 18.4387 33.6109Z" fill="#FAFAFA"/>
</svg>
