<svg width="35" height="33" viewBox="0 0 35 33" fill="none" xmlns="http://www.w3.org/2000/svg">
<path d="M22.0072 20.7224L17.6738 25.0557C17.3775 25.352 17.0118 25.5002 16.5766 25.5002C16.1414 25.5002 15.7757 25.352 15.4794 25.0557L1.36829 10.9446C1.07198 10.6483 0.923828 10.3103 0.923828 9.93071C0.923828 9.55109 1.07198 9.21314 1.36829 8.91683L5.70158 4.5835C5.99788 4.28722 6.36826 4.1113 6.8127 4.05575C7.25715 4.00016 7.62752 4.12052 7.92383 4.41683L22.0072 18.5002C22.3034 18.7965 22.4516 19.1668 22.4516 19.6113C22.4516 20.0557 22.3034 20.4261 22.0072 20.7224ZM27.7294 32.5557L21.4794 26.3057L23.4794 24.3057L29.7294 30.5557C29.9979 30.8242 30.1322 31.1576 30.1322 31.5557C30.1322 31.9539 29.9979 32.2872 29.7294 32.5557C29.4609 32.8242 29.1275 32.9585 28.7294 32.9585C28.3312 32.9585 27.9979 32.8242 27.7294 32.5557ZM28.7294 11.4446C27.1739 11.4446 25.859 10.9076 24.785 9.8335C23.7109 8.75941 23.1738 7.44459 23.1738 5.88904C23.1738 4.33348 23.7109 3.01868 24.785 1.94462C25.859 0.870538 27.1739 0.333496 28.7294 0.333496C30.2849 0.333496 31.5997 0.870538 32.6738 1.94462C33.7479 3.01868 34.285 4.33348 34.285 5.88904C34.285 7.44459 33.7479 8.75941 32.6738 9.8335C31.5997 10.9076 30.2849 11.4446 28.7294 11.4446Z" fill="#FAFAFA"/>
</svg>
