<svg width="31" height="32" viewBox="0 0 31 32" fill="none" xmlns="http://www.w3.org/2000/svg">
<path d="M11.9195 30.6808C9.24358 31.0974 6.91716 31.1599 4.9403 30.8683C2.96344 30.5766 1.71113 30.2502 1.18338 29.8891C0.85005 29.3891 0.528286 28.1252 0.218091 26.0975C-0.0921034 24.0697 -0.0388534 21.7502 0.377841 19.139L11.9195 30.6808ZM15.1834 30.0419L1.01672 15.8752C1.45188 14.1067 2.08845 12.4284 2.92642 10.8405C3.7644 9.25252 4.74356 7.89373 5.86392 6.76409C6.98429 5.64373 8.35234 4.66456 9.96809 3.82659C11.5838 2.98864 13.2296 2.36596 14.9056 1.95855L29.1 16.153C28.6926 17.8938 28.0723 19.565 27.2389 21.1669C26.4056 22.7687 25.4287 24.1299 24.3084 25.2502C23.151 26.3983 21.7783 27.3868 20.1903 28.2155C18.6024 29.0442 16.9334 29.653 15.1834 30.0419ZM11.4889 21.528L20.6 12.4169C20.8685 12.1484 21.0028 11.8243 21.0028 11.4447C21.0028 11.065 20.8685 10.7409 20.6 10.4724C20.3315 10.2039 20.0074 10.0697 19.6278 10.0697C19.2482 10.0697 18.9241 10.2039 18.6556 10.4724L9.54447 19.5835C9.27597 19.8521 9.14172 20.1761 9.14172 20.5558C9.14172 20.9354 9.27597 21.2595 9.54447 21.528C9.81299 21.7965 10.1371 21.9308 10.5167 21.9308C10.8963 21.9308 11.2204 21.7965 11.4889 21.528ZM29.7389 12.8892L18.1972 1.31967C20.9195 0.893725 23.276 0.828906 25.2667 1.12521C27.2575 1.42152 28.4889 1.75023 28.9611 2.11134C29.3315 2.68539 29.6602 3.95159 29.9473 5.90992C30.2343 7.86825 30.1648 10.1947 29.7389 12.8892Z" fill="#FAFAFA"/>
</svg>
