<svg width="29" height="33" viewBox="0 0 29 33" fill="none" xmlns="http://www.w3.org/2000/svg">
<path d="M26.0184 31C25.3239 31 24.7337 30.7569 24.2476 30.2708C23.7614 29.7847 23.5184 29.1944 23.5184 28.5C23.5184 27.8055 23.7614 27.2152 24.2476 26.7291C24.7337 26.243 25.3239 26 26.0184 26C26.7128 26 27.3031 26.243 27.7892 26.7291C28.2753 27.2152 28.5184 27.8055 28.5184 28.5C28.5184 29.1944 28.2753 29.7847 27.7892 30.2708C27.3031 30.7569 26.7128 31 26.0184 31ZM10.1851 32.6666C7.40728 32.6666 5.04617 32.3402 3.10173 31.6875C1.15728 31.0347 0.185059 30.25 0.185059 29.3333C0.185059 28.6944 0.643392 28.125 1.56006 27.625C2.47673 27.125 3.68506 26.7222 5.18506 26.4166V27.6666C5.18506 28.1388 5.34478 28.5347 5.66423 28.8541C5.98367 29.1736 6.3795 29.3333 6.85173 29.3333C7.32395 29.3333 7.71978 29.1736 8.03923 28.8541C8.35867 28.5347 8.51839 28.1388 8.51839 27.6666V1.99995C8.51839 1.36106 8.78228 0.881895 9.31006 0.562451C9.83784 0.243006 10.3795 0.222173 10.9351 0.499951L18.8517 4.37495C19.4906 4.68051 19.8101 5.18051 19.8101 5.87495C19.8101 6.5694 19.5045 7.0694 18.8934 7.37495L11.8517 11V26.0833C14.2406 26.2222 16.2267 26.5902 17.8101 27.1875C19.3934 27.7847 20.1851 28.5 20.1851 29.3333C20.1851 30.25 19.2128 31.0347 17.2684 31.6875C15.3239 32.3402 12.9628 32.6666 10.1851 32.6666Z" fill="#FAFAFA"/>
</svg>
