<svg width="22" height="39" viewBox="0 0 22 39" fill="none" xmlns="http://www.w3.org/2000/svg">
<path d="M5.11809 26.5276L2.89584 30.1804C2.71064 30.4952 2.43519 30.6966 2.06946 30.7846C1.70371 30.8725 1.35417 30.8239 1.02084 30.6388C0.687505 30.4536 0.476867 30.1781 0.388922 29.8123C0.30095 29.4466 0.358811 29.0971 0.562505 28.7638L9.06255 14.6943C7.93291 13.648 7.08569 12.4906 6.52088 11.222C5.95605 9.95355 5.67363 8.62948 5.67363 7.24984C5.67363 6.43503 5.73613 5.6642 5.86113 4.93734C5.98613 4.2105 6.21067 3.46282 6.53476 2.6943C6.68289 2.35171 6.93752 2.11792 7.29863 1.99292C7.65974 1.86792 8.00696 1.898 8.3403 2.08317C8.67363 2.26837 8.89817 2.54614 9.01392 2.9165C9.12964 3.28686 9.11806 3.65724 8.97917 4.02763C8.78473 4.53688 8.64816 5.03918 8.56946 5.53455C8.49077 6.02993 8.45142 6.53689 8.45142 7.05542C8.45142 8.43503 8.78475 9.70123 9.45142 10.854C10.1181 12.0068 11.1736 13.0091 12.6181 13.861L16.5625 16.1665C18.1921 17.1109 19.3959 18.3447 20.1736 19.8679C20.9514 21.391 21.3403 23.0091 21.3403 24.722C21.3403 25.5646 21.2431 26.4049 21.0486 27.2429C20.8542 28.0809 20.581 28.9026 20.2292 29.7082C20.081 30.06 19.8218 30.2938 19.4514 30.4095C19.081 30.5253 18.7245 30.4906 18.382 30.3054C18.0486 30.1202 17.8264 29.8424 17.7153 29.472C17.6042 29.1017 17.6181 28.7267 17.757 28.347C18.007 27.7545 18.1991 27.1642 18.3334 26.5762C18.4676 25.9882 18.5348 25.3794 18.5348 24.7498C18.5348 23.7498 18.3727 22.8192 18.0486 21.9581C17.7246 21.097 17.2292 20.3887 16.5625 19.8331L6.17363 37.597C5.98844 37.9304 5.71296 38.141 5.34721 38.229C4.98149 38.317 4.63196 38.2684 4.29863 38.0832C3.9653 37.898 3.75464 37.6225 3.66667 37.2568C3.57873 36.891 3.62734 36.5415 3.81251 36.2082L8.3403 28.4443L5.11809 26.5276ZM17.1736 13.6109C16.3125 13.6109 15.5741 13.3031 14.9583 12.6873C14.3426 12.0716 14.0348 11.3332 14.0348 10.472C14.0348 9.61094 14.3426 8.87252 14.9583 8.2568C15.5741 7.64105 16.3125 7.33317 17.1736 7.33317C18.0347 7.33317 18.7732 7.64105 19.3889 8.2568C20.0046 8.87252 20.3125 9.61094 20.3125 10.472C20.3125 11.3332 20.0046 12.0716 19.3889 12.6873C18.7732 13.3031 18.0347 13.6109 17.1736 13.6109ZM13.1736 5.6665C12.4514 5.6665 11.8542 5.42577 11.382 4.9443C10.9097 4.4628 10.6736 3.8702 10.6736 3.1665C10.6736 2.44428 10.9144 1.84706 11.3958 1.37484C11.8773 0.902615 12.4699 0.666504 13.1736 0.666504C13.8959 0.666504 14.4931 0.90724 14.9653 1.38871C15.4375 1.87021 15.6736 2.46281 15.6736 3.1665C15.6736 3.88873 15.4329 4.48595 14.9514 4.95817C14.4699 5.43039 13.8773 5.6665 13.1736 5.6665Z" fill="#FAFAFA"/>
</svg>
