<svg width="34" height="28" viewBox="0 0 34 28" fill="none" xmlns="http://www.w3.org/2000/svg">
<path d="M0.441406 25.6665V23.3054C0.441406 22.8332 0.601128 22.4374 0.920573 22.1179C1.24002 21.7985 1.63585 21.6388 2.10807 21.6388H3.21916V27.3332H2.10807C1.63585 27.3332 1.24002 27.1734 0.920573 26.854C0.601128 26.5346 0.441406 26.1387 0.441406 25.6665ZM4.99695 27.3332V21.6388H12.0803L13.747 17.9443L15.997 22.5832L14.247 26.4443C14.1081 26.7499 13.8997 26.9744 13.622 27.1179C13.3442 27.2614 13.0525 27.3332 12.747 27.3332H4.99695ZM33.7747 25.6665C33.7747 26.1387 33.615 26.5346 33.2956 26.854C32.9761 27.1734 32.5803 27.3332 32.1081 27.3332H30.997V21.6388H32.1081C32.5803 21.6388 32.9761 21.7985 33.2956 22.1179C33.615 22.4374 33.7747 22.8332 33.7747 23.3054V25.6665ZM29.2192 27.3332H21.4692C21.1636 27.3332 20.872 27.2614 20.5942 27.1179C20.3164 26.9744 20.1081 26.7499 19.9692 26.4443L9.51087 3.52759C9.19606 2.86092 9.24235 2.21741 9.64974 1.59705C10.0572 0.976685 10.6266 0.666504 11.3581 0.666504C11.7655 0.666504 12.1312 0.775296 12.4553 0.992879C12.7794 1.21049 13.0247 1.49984 13.1914 1.86092L17.1081 10.4999L21.0248 1.86092C21.1914 1.49984 21.4345 1.21049 21.7539 0.992879C22.0734 0.775296 22.4368 0.666504 22.8442 0.666504C23.5757 0.666504 24.1474 0.976685 24.5595 1.59705C24.9715 2.21741 25.0201 2.86092 24.7053 3.52759L19.3025 15.3887L22.1359 21.6388H29.2192V27.3332Z" fill="#FAFAFA"/>
</svg>
