<svg width="40" height="37" viewBox="0 0 40 37" fill="none" xmlns="http://www.w3.org/2000/svg">
<path d="M8.4766 25.2779V29.0974C8.4766 29.2745 8.44419 29.4461 8.37935 29.6122C8.31455 29.7782 8.20808 29.9354 8.05994 30.0835L2.50435 35.6668C2.23585 35.9354 1.90716 36.0696 1.51827 36.0696C1.12938 36.0696 0.800672 35.9354 0.532145 35.6668C0.263645 35.3983 0.129395 35.0742 0.129395 34.6946C0.129395 34.315 0.263645 33.9909 0.532145 33.7224L5.69881 28.5002L3.83773 23.3613C3.62476 22.7872 3.57383 22.2062 3.68494 21.6182C3.79605 21.0303 4.08771 20.5002 4.55994 20.028L10.1711 14.389C10.4673 14.0928 10.8007 13.8613 11.1711 13.6946C11.5414 13.528 11.9257 13.4446 12.3238 13.4446C12.722 13.4446 13.1062 13.528 13.4766 13.6946C13.847 13.8613 14.1803 14.0928 14.4766 14.389L17.921 17.6668C18.9673 18.6391 19.9581 19.3127 20.8933 19.6877C21.8284 20.0627 22.921 20.2502 24.171 20.2502V23.0279C22.6895 23.0279 21.2683 22.7872 19.9071 22.3057C18.546 21.8242 17.3099 21.0279 16.1988 19.9168L14.7821 18.5002L10.3099 22.9724L13.6849 26.3057C13.8238 26.4446 13.9257 26.6001 13.9905 26.7722C14.0553 26.9443 14.0877 27.1222 14.0877 27.3057V35.278C14.0877 35.6715 13.9541 36.0013 13.687 36.2675C13.4199 36.5337 13.0889 36.6668 12.6939 36.6668C12.299 36.6668 11.9697 36.5337 11.7058 36.2675C11.4419 36.0013 11.3099 35.6715 11.3099 35.278V27.9446L8.4766 25.2779ZM27.5877 27.528V35.278C27.5877 35.6715 27.4542 36.0013 27.187 36.2675C26.9199 36.5337 26.5889 36.6668 26.1939 36.6668C25.799 36.6668 25.4697 36.5337 25.2058 36.2675C24.9419 36.0013 24.8099 35.6715 24.8099 35.278V25.8196C24.8099 25.636 24.8424 25.4582 24.9072 25.2861C24.972 25.114 25.0785 24.9539 25.2266 24.8057L28.4766 21.7502L27.2266 14.8335C26.347 16.0002 25.509 16.8798 24.7127 17.4724C23.9164 18.065 23.0784 18.5094 22.1988 18.8057C21.5969 18.6391 20.9974 18.3937 20.4002 18.0696C19.803 17.7455 19.3192 17.3798 18.9488 16.9724C20.1988 16.7502 21.3539 16.3173 22.4141 15.6738C23.4743 15.0303 24.4303 14.0187 25.2822 12.639L26.9683 9.89425C27.4461 9.12227 28.0553 8.62286 28.7961 8.396C29.5368 8.16914 30.2914 8.22237 31.0599 8.55571L38.6433 11.8335C38.8979 11.9518 39.1005 12.1234 39.2509 12.3482C39.4014 12.5729 39.4766 12.8273 39.4766 13.1113V18.1946C39.4766 18.5881 39.343 18.918 39.0759 19.1842C38.8088 19.4504 38.4777 19.5835 38.0829 19.5835C37.688 19.5835 37.3586 19.4504 37.0947 19.1842C36.8308 18.918 36.6989 18.5881 36.6989 18.1946V14.0279L32.9766 12.4168L37.3377 34.9863C37.4303 35.4215 37.33 35.8103 37.0368 36.153C36.7436 36.4955 36.3507 36.6668 35.8581 36.6668C35.5297 36.6668 35.2386 36.5691 34.9846 36.3736C34.7307 36.1781 34.5706 35.9194 34.5044 35.5974L31.5599 23.6112L27.5877 27.528ZM18.3399 14.0557C17.4774 14.0557 16.7382 13.7486 16.1224 13.1343C15.5067 12.5201 15.1988 11.7816 15.1988 10.919C15.1988 10.0565 15.5059 9.31729 16.1202 8.70154C16.7345 8.08582 17.4729 7.77795 18.3355 7.77795C19.1981 7.77795 19.9372 8.08508 20.553 8.69933C21.1687 9.31361 21.4766 10.052 21.4766 10.9146C21.4766 11.7772 21.1695 12.5164 20.5552 13.1321C19.9409 13.7478 19.2025 14.0557 18.3399 14.0557ZM26.951 7.11125C26.0884 7.11125 25.3493 6.80412 24.7336 6.18987C24.1178 5.57559 23.8099 4.83716 23.8099 3.97458C23.8099 3.112 24.1171 2.37284 24.7314 1.75712C25.3456 1.14137 26.084 0.833496 26.9466 0.833496C27.8092 0.833496 28.5484 1.14064 29.1641 1.75491C29.7799 2.36916 30.0877 3.10758 30.0877 3.97016C30.0877 4.83275 29.7806 5.57191 29.1663 6.18766C28.552 6.80339 27.8136 7.11125 26.951 7.11125Z" fill="#FAFAFA"/>
</svg>
