<svg width="31" height="36" viewBox="0 0 31 36" fill="none" xmlns="http://www.w3.org/2000/svg">
<path d="M16.6653 18.4444L15.8875 34.4444C15.8598 34.8148 15.7093 35.1296 15.4362 35.3888C15.163 35.6481 14.8042 35.7777 14.3598 35.7777C13.9894 35.7777 13.6723 35.6481 13.4084 35.3888C13.1445 35.1296 12.9987 34.8148 12.9709 34.4444L12.2209 20.0555L5.9292 16.4305L5.20695 19.0416L7.8042 23.611C7.98937 23.9444 8.03798 24.2916 7.95003 24.6527C7.86206 25.0138 7.65141 25.287 7.31807 25.4721C6.98474 25.6573 6.63289 25.7036 6.26253 25.611C5.89217 25.5184 5.61439 25.3055 5.4292 24.9721L2.48474 19.9583C2.39216 19.8008 2.33198 19.6295 2.3042 19.4444C2.27642 19.2592 2.29031 19.074 2.34587 18.8888L4.13753 12.4999L13.9153 6.86104L10.2487 3.19438C9.98013 2.92585 9.84356 2.60409 9.83895 2.22909C9.83431 1.85409 9.97088 1.5277 10.2487 1.24992C10.5172 0.981419 10.8412 0.847168 11.2209 0.847168C11.6005 0.847168 11.9246 0.981419 12.1931 1.24992L17.1514 6.16659C17.4847 6.49992 17.6213 6.89113 17.5612 7.34021C17.501 7.78927 17.2718 8.13417 16.8737 8.37492L12.4153 10.9166L15.4431 13.4166L27.9153 2.62492C28.1653 2.4027 28.4639 2.30317 28.8112 2.32633C29.1584 2.34947 29.4709 2.50918 29.7487 2.80546C29.9801 3.05546 30.0982 3.3425 30.1028 3.66659C30.1074 3.99067 29.9894 4.27771 29.7487 4.52771L16.6653 18.4444ZM3.69307 9.74992C2.83196 9.74992 2.09355 9.44204 1.47782 8.82629C0.862075 8.21057 0.554199 7.47215 0.554199 6.61104C0.554199 5.74993 0.862075 5.0115 1.47782 4.39575C2.09355 3.78003 2.83196 3.47217 3.69307 3.47217C4.55419 3.47217 5.29262 3.78003 5.90837 4.39575C6.52409 5.0115 6.83195 5.74993 6.83195 6.61104C6.83195 7.47215 6.52409 8.21057 5.90837 8.82629C5.29262 9.44204 4.55419 9.74992 3.69307 9.74992Z" fill="#FAFAFA"/>
</svg>
