<svg width="24" height="30" viewBox="0 0 24 30" fill="none" xmlns="http://www.w3.org/2000/svg">
<path d="M5.44141 30C4.95066 30 4.5502 29.8449 4.24003 29.5347C3.92984 29.2245 3.77474 28.8241 3.77474 28.3333V24.0278H20.4414V28.3333C20.4414 28.8241 20.2863 29.2245 19.9761 29.5347C19.6659 29.8449 19.2655 30 18.7747 30H5.44141ZM23.7747 8.19446V13.3889C23.7747 13.5463 23.7562 13.6667 23.7192 13.75L22.4414 19.9722C22.3395 20.4537 22.115 20.838 21.7678 21.125C21.4206 21.412 21.0062 21.5555 20.5247 21.5555H3.69141C3.20993 21.5555 2.79559 21.412 2.44836 21.125C2.10114 20.838 1.8766 20.4537 1.77474 19.9722L0.496948 13.75C0.45992 13.6667 0.441406 13.5463 0.441406 13.3889V2.77775C0.441406 1.99072 0.707615 1.33101 1.24003 0.798625C1.77242 0.266208 2.43213 0 3.21916 0H17.9414C18.7285 0 19.3882 0.266208 19.9206 0.798625C20.453 1.33101 20.7192 1.99072 20.7192 2.77775V8.19446C20.7192 7.74074 20.8604 7.37268 21.1428 7.09029C21.4252 6.80787 21.7933 6.66667 22.2469 6.66667C22.7007 6.66667 23.0687 6.80787 23.3511 7.09029C23.6335 7.37268 23.7747 7.74074 23.7747 8.19446ZM8.55253 11.4445H12.6081C13.3581 11.4445 13.9946 11.1829 14.5178 10.6597C15.0409 10.1366 15.3025 9.5 15.3025 8.75C15.3025 8 15.0409 7.36342 14.5178 6.84025C13.9946 6.31711 13.3581 6.05554 12.6081 6.05554H8.55253C7.80253 6.05554 7.16596 6.31711 6.64282 6.84025C6.11966 7.36342 5.85807 8 5.85807 8.75C5.85807 9.5 6.11966 10.1366 6.64282 10.6597C7.16596 11.1829 7.80253 11.4445 8.55253 11.4445Z" fill="#FAFAFA"/>
</svg>
