<svg width="31" height="24" viewBox="0 0 31 24" fill="none" xmlns="http://www.w3.org/2000/svg">
<path d="M19.3738 23.3608H1.97111C1.55442 23.3608 1.21182 23.2266 0.943319 22.958C0.674792 22.6895 0.540527 22.3469 0.540527 21.9303C0.540527 20.8469 0.570611 19.9326 0.630777 19.1872C0.690972 18.4419 0.762736 17.7729 0.846069 17.1803H12.7072C14.4201 17.1803 15.8715 16.5785 17.0613 15.3748C18.2511 14.1711 18.846 12.685 18.846 10.9164C18.846 9.61087 18.5428 8.43726 17.9363 7.39559C17.3298 6.35392 16.3321 5.56458 14.9432 5.02755L9.72103 3.04146C11.221 2.22663 12.7002 1.62246 14.1585 1.22896C15.6169 0.835435 17.1608 0.638672 18.7904 0.638672C22.0127 0.638672 24.7719 1.72431 27.0682 3.89559C29.3645 6.0669 30.5127 8.74977 30.5127 11.9442C30.5127 15.0831 29.4363 17.7706 27.2835 20.0067C25.1307 22.2428 22.4941 23.3608 19.3738 23.3608ZM1.22107 14.4164C1.7396 12.4812 2.48497 10.715 3.45719 9.1178C4.42939 7.5206 5.62846 6.09237 7.0544 4.83309L13.8322 7.62476C14.5544 7.89328 15.1099 8.31458 15.4988 8.88863C15.8877 9.46272 16.0822 10.1386 16.0822 10.9164C16.0822 11.8979 15.7465 12.7266 15.0752 13.4025C14.4039 14.0785 13.5497 14.4164 12.5127 14.4164H1.22107Z" fill="#FAFAFA"/>
</svg>
