<svg width="35" height="30" viewBox="0 0 35 30" fill="none" xmlns="http://www.w3.org/2000/svg">
<path d="M17.5539 28.3333C16.5539 28.3333 15.7622 28.6111 15.1789 29.1667C14.5955 29.7222 13.5261 30 11.9705 30C10.415 30 9.34554 29.7222 8.76221 29.1667C8.17887 28.6111 7.38721 28.3333 6.38721 28.3333C5.58165 28.3333 4.97054 28.5208 4.55387 28.8958C4.13721 29.2708 3.48443 29.5694 2.59554 29.7917C2.1511 29.9028 1.75526 29.8056 1.40804 29.5C1.06082 29.1944 0.887207 28.8056 0.887207 28.3333C0.887207 27.8611 1.05387 27.4514 1.38721 27.1042C1.72054 26.7569 2.09554 26.4722 2.51221 26.25C2.98443 26 3.48443 25.7292 4.01221 25.4375C4.53998 25.1458 5.33165 25 6.38721 25C7.94276 25 9.01221 25.2778 9.59554 25.8333C10.1789 26.3889 10.9705 26.6667 11.9705 26.6667C12.9705 26.6667 13.7622 26.3889 14.3455 25.8333C14.9289 25.2778 15.9983 25 17.5539 25C19.1094 25 20.1789 25.2778 20.7622 25.8333C21.3455 26.3889 22.1372 26.6667 23.1372 26.6667C24.1372 26.6667 24.9289 26.3889 25.5122 25.8333C26.0955 25.2778 27.165 25 28.7205 25C29.7761 25 30.5678 25.1458 31.0955 25.4375C31.6233 25.7292 32.1233 26 32.5955 26.25C33.0122 26.4722 33.3872 26.7569 33.7205 27.1042C34.0539 27.4514 34.2205 27.8611 34.2205 28.3333C34.2205 28.8056 34.0469 29.1944 33.6997 29.5C33.3525 29.8056 32.9567 29.9028 32.5122 29.7917C31.6233 29.5694 30.9705 29.2708 30.5539 28.8958C30.1372 28.5208 29.5261 28.3333 28.7205 28.3333C27.7205 28.3333 26.9289 28.6111 26.3455 29.1667C25.7622 29.7222 24.6928 30 23.1372 30C21.5817 30 20.5122 29.7222 19.9289 29.1667C19.3455 28.6111 18.5539 28.3333 17.5539 28.3333ZM17.5539 20.8333C16.4983 20.8333 15.7136 21.1111 15.1997 21.6667C14.6858 22.2222 13.6094 22.5 11.9705 22.5C10.3317 22.5 9.24137 22.2222 8.69971 21.6667C8.15804 21.1111 7.38721 20.8333 6.38721 20.8333C5.58165 20.8333 4.97054 21.0208 4.55387 21.3958C4.13721 21.7708 3.48443 22.0694 2.59554 22.2917C2.1511 22.4028 1.75526 22.3056 1.40804 22C1.06082 21.6944 0.887207 21.3056 0.887207 20.8333C0.887207 20.3611 1.05387 19.9514 1.38721 19.6042C1.72054 19.2569 2.09554 18.9722 2.51221 18.75C2.98443 18.5 3.48443 18.2292 4.01221 17.9375C4.53998 17.6458 5.33165 17.5 6.38721 17.5C7.94276 17.5 9.01915 17.7778 9.61637 18.3333C10.2136 18.8889 10.9983 19.1667 11.9705 19.1667C12.9705 19.1667 13.7622 18.8889 14.3455 18.3333C14.9289 17.7778 15.9983 17.5 17.5539 17.5C19.1094 17.5 20.1789 17.7778 20.7622 18.3333C21.3455 18.8889 22.1372 19.1667 23.1372 19.1667C24.1372 19.1667 24.9289 18.8889 25.5122 18.3333C26.0955 17.7778 27.165 17.5 28.7205 17.5C29.7761 17.5 30.5678 17.6458 31.0955 17.9375C31.6233 18.2292 32.1233 18.5 32.5955 18.75C33.0122 18.9722 33.3872 19.2569 33.7205 19.6042C34.0539 19.9514 34.2205 20.3611 34.2205 20.8333C34.2205 21.3056 34.0469 21.6944 33.6997 22C33.3525 22.3056 32.9567 22.4028 32.5122 22.2917C31.6233 22.0694 30.9705 21.7708 30.5539 21.3958C30.1372 21.0208 29.5261 20.8333 28.7205 20.8333C27.7205 20.8333 26.9497 21.1111 26.408 21.6667C25.8664 22.2222 24.7761 22.5 23.1372 22.5C21.5539 22.5 20.4775 22.2222 19.908 21.6667C19.3386 21.1111 18.5539 20.8333 17.5539 20.8333ZM9.05387 14L14.5955 8.45833L12.9289 6.79167C12.2344 6.09722 11.5192 5.54861 10.783 5.14583C10.0469 4.74306 9.20665 4.47222 8.26221 4.33333C7.70665 4.22222 7.22749 3.95833 6.82471 3.54167C6.42193 3.125 6.22054 2.63889 6.22054 2.08333C6.22054 1.5 6.42887 1.00694 6.84554 0.604167C7.26221 0.201389 7.74832 0.0277778 8.30387 0.0833333C9.80387 0.222222 11.0955 0.534722 12.1789 1.02083C13.2622 1.50694 14.3317 2.27778 15.3872 3.33333L26.0539 14C25.5817 14.3056 25.1233 14.5486 24.6789 14.7292C24.2344 14.9097 23.7205 15 23.1372 15C22.1372 15 21.3455 14.7222 20.7622 14.1667C20.1789 13.6111 19.1094 13.3333 17.5539 13.3333C15.9983 13.3333 14.9289 13.6111 14.3455 14.1667C13.7622 14.7222 12.9705 15 11.9705 15C11.3872 15 10.8733 14.9097 10.4289 14.7292C9.98443 14.5486 9.5261 14.3056 9.05387 14ZM25.3872 0C26.5539 0 27.54 0.409722 28.3455 1.22917C29.1511 2.04861 29.5539 3.02778 29.5539 4.16667C29.5539 5.33333 29.1511 6.31944 28.3455 7.125C27.54 7.93056 26.5539 8.33333 25.3872 8.33333C24.2205 8.33333 23.2344 7.93056 22.4289 7.125C21.6233 6.31944 21.2205 5.33333 21.2205 4.16667C21.2205 3.02778 21.6233 2.04861 22.4289 1.22917C23.2344 0.409722 24.2205 0 25.3872 0Z" fill="#FAFAFA"/>
</svg>
