<svg width="33" height="32" viewBox="0 0 33 32" fill="none" xmlns="http://www.w3.org/2000/svg">
<path d="M9.07345 31.8332C7.379 31.8332 5.9114 31.6804 4.67065 31.3748C3.42993 31.0693 2.59197 30.6943 2.15678 30.2498C1.71233 29.8146 1.35586 28.9813 1.08736 27.7498C0.818834 26.5184 0.68457 25.0461 0.68457 23.3332C0.68457 20.1387 1.2517 17.0623 2.38595 14.104C3.52022 11.1457 5.1105 8.61095 7.15678 6.49984C9.09197 4.4165 11.5711 2.84012 14.5943 1.77067C17.6174 0.701226 20.7957 0.166504 24.129 0.166504C25.8049 0.166504 27.2679 0.305393 28.5179 0.583171C29.7679 0.860948 30.6012 1.20355 31.0179 1.61096C31.4438 1.99057 31.7725 2.7776 32.004 3.97205C32.2355 5.16649 32.3512 6.685 32.3512 8.52759C32.3512 11.7961 31.798 14.9095 30.6915 17.8679C29.585 20.8262 28.0272 23.3239 26.0179 25.361C23.9716 27.4628 21.4461 29.067 18.4415 30.1735C15.4369 31.2799 12.3142 31.8332 9.07345 31.8332ZM3.40678 23.7499C4.30492 21.4536 5.46232 19.2429 6.87899 17.1179C8.29565 14.9929 9.93456 12.9906 11.7957 11.111C13.379 9.47207 15.2193 7.98596 17.3165 6.65263C19.4137 5.31927 21.7679 4.05537 24.3791 2.86092C21.5735 2.79612 18.7795 3.28455 15.9971 4.32621C13.2147 5.36788 10.9438 6.76834 9.18457 8.52759C7.41604 10.3332 6.00168 12.5971 4.94149 15.3193C3.88129 18.0415 3.36972 20.8517 3.40678 23.7499ZM8.8234 29.111C11.8697 28.9906 14.7471 28.4142 17.4554 27.3818C20.1637 26.3494 22.3512 24.9998 24.0179 23.3332C25.7864 21.5276 27.173 19.2591 28.1777 16.5276C29.1823 13.7961 29.6753 10.9813 29.6568 8.08313C28.555 10.6943 27.3281 13.0253 25.9762 15.0762C24.6244 17.1272 23.1013 19.0091 21.4068 20.722C19.842 22.3609 18.0248 23.847 15.9554 25.1804C13.886 26.5137 11.5086 27.8239 8.8234 29.111Z" fill="#FAFAFA"/>
</svg>
