<svg width="35" height="34" viewBox="0 0 35 34" fill="none" xmlns="http://www.w3.org/2000/svg">
<path d="M17.5905 33.6668C15.3035 33.6668 13.1461 33.2293 11.1183 32.3543C9.09051 31.4793 7.32198 30.2872 5.8127 28.778C4.30345 27.2687 3.11133 25.5002 2.23633 23.4724C1.36133 21.4446 0.923828 19.2872 0.923828 17.0002C0.923828 14.6946 1.36133 12.5326 2.23633 10.514C3.11133 8.49554 4.30345 6.73165 5.8127 5.22237C7.32198 3.71312 9.09051 2.521 11.1183 1.646C13.1461 0.770996 15.3035 0.333496 17.5905 0.333496C19.8961 0.333496 22.0581 0.770996 24.0766 1.646C26.0951 2.521 27.859 3.71312 29.3683 5.22237C30.8775 6.73165 32.0697 8.49554 32.9447 10.514C33.8197 12.5326 34.2572 14.6946 34.2572 17.0002C34.2572 19.2872 33.8197 21.4446 32.9447 23.4724C32.0697 25.5002 30.8775 27.2687 29.3683 28.778C27.859 30.2872 26.0951 31.4793 24.0766 32.3543C22.0581 33.2293 19.8961 33.6668 17.5905 33.6668ZM26.0627 13.028L28.7294 12.1113L29.4516 9.5835C28.5257 8.15755 27.3914 6.93764 26.0488 5.92375C24.7062 4.90986 23.2016 4.13902 21.535 3.61125L18.9794 5.3335V8.05571L26.0627 13.028ZM9.14604 13.028L16.2016 8.05571V5.3335L13.6738 3.61125C12.0072 4.13902 10.5025 4.90986 9.15991 5.92375C7.81733 6.93764 6.68308 8.15755 5.75716 9.5835L6.5905 12.1113L9.14604 13.028ZM7.0627 26.1946L9.36829 25.9446L10.8683 23.389L8.3405 15.6668L5.5905 14.7224L3.70158 16.2224C3.70158 18.1576 3.93306 19.9238 4.39604 21.521C4.85901 23.1182 5.7479 24.6761 7.0627 26.1946ZM17.5905 30.8891C18.3312 30.8891 19.072 30.8243 19.8127 30.6946C20.5535 30.565 21.3127 30.3891 22.0905 30.1668L23.3961 27.3335L22.1461 25.1946H13.0627L11.8127 27.3335L13.1182 30.1668C13.822 30.3891 14.5581 30.565 15.3266 30.6946C16.0951 30.8243 16.8497 30.8891 17.5905 30.8891ZM13.396 22.4168H21.6738L24.1461 15.1113L17.5905 10.4446L10.9794 15.1113L13.396 22.4168ZM28.1461 26.1946C29.4424 24.6761 30.322 23.1182 30.785 21.521C31.2479 19.9238 31.4794 18.1576 31.4794 16.2224L29.5905 14.9168L26.8683 15.6668L24.3405 23.389L25.8127 25.9446L28.1461 26.1946Z" fill="#FAFAFA"/>
</svg>
