<svg width="34" height="37" viewBox="0 0 34 37" fill="none" xmlns="http://www.w3.org/2000/svg">
<path d="M2.07243 36.3333H1.79464C1.3965 36.3333 1.06548 36.2014 0.801595 35.9375C0.537706 35.6736 0.405762 35.3426 0.405762 34.9445C0.405762 34.5463 0.537706 34.2153 0.801595 33.9514C1.06548 33.6875 1.3965 33.5556 1.79464 33.5556H2.07243C2.79465 33.5556 3.5053 33.4607 4.20439 33.2708C4.90344 33.081 5.58168 32.7546 6.2391 32.2917C6.47057 32.1158 6.74835 32.0278 7.07243 32.0278C7.39651 32.0278 7.67429 32.1158 7.90576 32.2917C8.56318 32.7546 9.24142 33.081 9.94047 33.2708C10.6396 33.4607 11.3502 33.5556 12.0724 33.5556C12.7761 33.5556 13.4821 33.456 14.1905 33.257C14.8988 33.0579 15.5817 32.7361 16.2391 32.2917C16.4891 32.1343 16.7738 32.0556 17.0933 32.0556C17.4127 32.0556 17.6835 32.1343 17.9058 32.2917C18.5632 32.7546 19.2414 33.081 19.9405 33.2708C20.6396 33.4607 21.3502 33.5556 22.0724 33.5556C22.7761 33.5556 23.4821 33.456 24.1905 33.257C24.8988 33.0579 25.5817 32.7361 26.2391 32.2917C26.4613 32.1343 26.7391 32.0556 27.0724 32.0556C27.4058 32.0556 27.6835 32.1343 27.9058 32.2917C28.5632 32.7361 29.2461 33.0579 29.9544 33.257C30.6627 33.456 31.3687 33.5556 32.0724 33.5556H32.3502C32.7484 33.5556 33.0794 33.6875 33.3433 33.9514C33.6072 34.2153 33.7391 34.5463 33.7391 34.9445C33.7391 35.3426 33.6072 35.6736 33.3433 35.9375C33.0794 36.2014 32.7484 36.3333 32.3502 36.3333H32.0724C31.2483 36.3333 30.415 36.2199 29.5724 35.993C28.7298 35.7662 27.8965 35.3704 27.0724 34.8055C26.2483 35.3704 25.415 35.7662 24.5724 35.993C23.7298 36.2199 22.8965 36.3333 22.0724 36.3333C21.2483 36.3333 20.415 36.2199 19.5724 35.993C18.7298 35.7662 17.8965 35.3704 17.0724 34.8055C16.2483 35.3704 15.415 35.7662 14.5724 35.993C13.7298 36.2199 12.8965 36.3333 12.0724 36.3333C11.2483 36.3333 10.415 36.2199 9.57243 35.993C8.72985 35.7662 7.89651 35.3704 7.07243 34.8055C6.24835 35.3704 5.41501 35.7662 4.57243 35.993C3.72985 36.2199 2.89651 36.3333 2.07243 36.3333ZM16.8918 14.4445L23.4613 19.6111V26.2222C23.9243 26.5463 24.3641 26.8704 24.7808 27.1945C25.1974 27.5185 25.6187 27.8518 26.0446 28.1945C25.4798 28.6574 24.8641 29.037 24.1974 29.3333C23.5308 29.6296 22.8224 29.7778 22.0724 29.7778C21.1095 29.7778 20.1974 29.5324 19.3363 29.0417C18.4752 28.5509 17.7206 27.9167 17.0724 27.1389C16.4243 27.9167 15.6697 28.5509 14.8086 29.0417C13.9474 29.5324 13.0354 29.7778 12.0724 29.7778C11.9428 29.7778 11.8108 29.7708 11.6766 29.757C11.5423 29.7431 11.415 29.713 11.2947 29.6667C8.59096 27.787 6.42429 26.0185 4.79468 24.3611C3.16504 22.7037 2.35022 21.2917 2.35022 20.125C2.35022 19.375 2.65578 18.8796 3.26689 18.6389C3.878 18.3982 4.50762 18.2778 5.15576 18.2778C5.96132 18.2778 6.91503 18.4097 8.01689 18.6736C9.11872 18.9375 10.3409 19.3102 11.6836 19.7917L10.7808 14.2639C10.6697 13.6528 10.709 13.081 10.8988 12.5486C11.0887 12.0162 11.4243 11.5926 11.9058 11.2778L16.0447 8.5C15.8873 8.48147 15.6164 8.43286 15.2322 8.35417C14.8479 8.27544 14.4335 8.19674 13.9891 8.11804C13.5447 8.03935 13.1303 7.95601 12.7461 7.86804C12.3618 7.78007 12.0909 7.72683 11.9336 7.70833L8.4891 10.0555C8.17429 10.2685 7.83169 10.3472 7.4613 10.2917C7.09094 10.2361 6.79465 10.0417 6.57243 9.70833C6.35948 9.375 6.28542 9.02083 6.35022 8.64583C6.41503 8.27083 6.6141 7.97685 6.94743 7.76388L10.8224 5.09721C10.9798 4.99538 11.1442 4.92362 11.3155 4.88196C11.4868 4.84029 11.665 4.83797 11.8502 4.875L20.4336 6.45833C20.7669 6.51389 21.1002 6.65278 21.4336 6.875C21.7669 7.09722 22.0493 7.41204 22.2808 7.81946L23.7391 10.4028C24.3595 11.4954 25.1812 12.4167 26.2044 13.1667C27.2275 13.9167 28.3826 14.4028 29.6696 14.625C30.04 14.6898 30.3479 14.8657 30.5933 15.1528C30.8386 15.4398 30.9613 15.7685 30.9613 16.1389C30.9613 16.5185 30.8271 16.838 30.5586 17.0972C30.29 17.3565 29.9798 17.4583 29.628 17.4028C27.8502 17.1343 26.2275 16.4815 24.7599 15.4444C23.2923 14.4074 22.1048 13.1065 21.1974 11.5417L16.8918 14.4445ZM14.0169 16.4722L14.7391 21.1111C15.6928 21.5648 16.7021 22.081 17.7669 22.6597C18.8317 23.2384 19.8039 23.7963 20.6836 24.3333V21.2778L14.0169 16.4722ZM25.4058 6.77775C24.5447 6.77775 23.8062 6.46989 23.1905 5.85417C22.5748 5.23842 22.2669 4.49999 22.2669 3.63888C22.2669 2.77776 22.5748 2.03935 23.1905 1.42362C23.8062 0.807875 24.5447 0.5 25.4058 0.5C26.2669 0.5 27.0053 0.807875 27.6211 1.42362C28.2368 2.03935 28.5446 2.77776 28.5446 3.63888C28.5446 4.49999 28.2368 5.23842 27.6211 5.85417C27.0053 6.46989 26.2669 6.77775 25.4058 6.77775Z" fill="#FAFAFA"/>
</svg>
