<svg width="34" height="38" viewBox="0 0 34 38" fill="none" xmlns="http://www.w3.org/2000/svg">
<path d="M18.6668 22.8611C16.1205 22.8611 14.1714 23.0325 12.8196 23.3751C11.4677 23.7176 10.3381 24.3426 9.43066 25.2501L3.29179 31.3889C3.02326 31.6575 2.7015 31.7871 2.3265 31.7779C1.9515 31.7686 1.62511 31.6297 1.34733 31.3612C1.06955 31.0834 0.930664 30.7524 0.930664 30.3681C0.930664 29.9839 1.06955 29.6528 1.34733 29.3751L7.44458 23.2779C8.34272 22.3797 8.97466 21.257 9.34041 19.9098C9.70616 18.5626 9.88904 16.6204 9.88904 14.0834C9.88904 12.4908 10.2409 10.926 10.9446 9.38894C11.6483 7.85191 12.6946 6.38895 14.0835 5.00006C16.5557 2.52784 19.2733 1.12506 22.2362 0.791731C25.1992 0.458397 27.639 1.25933 29.5557 3.19452C31.4816 5.12044 32.2779 7.57413 31.9446 10.5556C31.6112 13.5371 30.2131 16.2593 27.7501 18.7223C26.3612 20.1112 24.8983 21.1482 23.3612 21.8334C21.8242 22.5186 20.2594 22.8611 18.6668 22.8611ZM14.1946 18.5001C15.5372 19.8334 17.3566 20.3288 19.6529 19.9862C21.9492 19.6436 24.0094 18.5602 25.8335 16.7362C27.6668 14.9029 28.7617 12.8542 29.1182 10.5904C29.4747 8.32647 28.9816 6.53248 27.639 5.2084C26.2872 3.85654 24.4793 3.3519 22.2154 3.69448C19.9515 4.03709 17.8983 5.12506 16.0557 6.9584C14.2316 8.78248 13.1321 10.8265 12.7571 13.0904C12.3821 15.3542 12.8612 17.1575 14.1946 18.5001ZM27.4446 37.3334C25.7224 37.3334 24.2548 36.7269 23.0418 35.5139C21.8289 34.301 21.2224 32.8334 21.2224 31.1112C21.2224 29.389 21.8289 27.9214 23.0418 26.7084C24.2548 25.4955 25.7224 24.889 27.4446 24.889C29.1668 24.889 30.6344 25.4955 31.8473 26.7084C33.0603 27.9214 33.6668 29.389 33.6668 31.1112C33.6668 32.8334 33.0603 34.301 31.8473 35.5139C30.6344 36.7269 29.1668 37.3334 27.4446 37.3334Z" fill="#FAFAFA"/>
</svg>
