<svg width="34" height="34" viewBox="0 0 34 34" fill="none" xmlns="http://www.w3.org/2000/svg">
<path d="M33.3696 13.8054L18.4252 5.18038V0.388672C22.1937 0.703505 25.4391 2.09009 28.1613 4.54842C30.8835 7.00676 32.6196 10.0924 33.3696 13.8054ZM9.03634 19.9443V2.38867C9.97151 1.89795 10.9715 1.47203 12.0363 1.11092C13.1011 0.74981 14.3094 0.509061 15.6613 0.388672V16.0693L9.03634 19.9443ZM1.95296 24.1248C1.43443 23.0137 1.04092 21.8725 0.772421 20.7012C0.503893 19.5299 0.369629 18.2961 0.369629 16.9998C0.369629 14.5461 0.874268 12.2197 1.88355 10.0206C2.8928 7.82151 4.35113 5.93494 6.25855 4.36088V21.5692L1.95296 24.1248ZM8.42517 31.2498C7.40664 30.6942 6.45294 29.9859 5.56405 29.1248C4.67516 28.2637 3.92517 27.3887 3.31409 26.4998L17.0502 18.472L23.7863 22.4025L8.42517 31.2498ZM17.0502 33.6665C16.0965 33.6665 15.1428 33.5808 14.189 33.4095C13.2353 33.2382 12.3511 33.0044 11.5363 32.7081L26.5085 24.0137L30.7585 26.472C29.1937 28.6942 27.2192 30.4489 24.8349 31.7359C22.4506 33.023 19.8557 33.6665 17.0502 33.6665ZM32.1335 24.0831L18.4252 16.0693V8.41646L33.703 17.3193C33.6474 18.523 33.4993 19.6804 33.2585 20.7915C33.0178 21.9026 32.6428 22.9998 32.1335 24.0831Z" fill="#FAFAFA"/>
</svg>
