<svg width="110" height="62" viewBox="0 0 110 62" fill="none" xmlns="http://www.w3.org/2000/svg">
<path fill-rule="evenodd" clip-rule="evenodd" d="M55.4576 0.868164C25.3202 0.868164 0.888672 14.3594 0.888672 31.0157C0.888672 47.6627 25.3202 61.1539 55.4576 61.1539C85.5949 61.1539 110.026 47.6627 110.026 31.0157C110.026 14.3594 85.5949 0.868164 55.4576 0.868164ZM55.4576 1.74546C26.1976 1.74546 2.47534 14.8461 2.47534 31.0157C2.47534 47.1791 26.1976 60.2766 55.4576 60.2766C84.7176 60.2766 108.437 47.1791 108.437 31.0126C108.437 14.8461 84.7176 1.75166 55.4576 1.75166V1.74546ZM67.2176 33.8801L66.9033 27.987H57.3087V23.5447H71.7691L71.262 16.9944H47.9287L47.1353 41.2209H46.8056L38.6544 16.9944H22.4144L29.4767 20.2246H26.1665L11.5007 43.7908H22.1687L24.3465 39.5128H36.3211L37.3073 43.7908H57.3087V33.8832H67.2176V33.8801ZM75.3842 43.7908H99.8064L98.1949 37.0328H85.7131L83.554 20.2308H80.474L88.0464 16.9851H73.2687L75.3842 43.7908ZM32.23 23.9694H32.7651L35.2011 34.6241H26.8509L32.23 23.9694ZM11.8522 31.0157C11.8522 15.959 31.3776 3.75736 55.4576 3.75736C79.5376 3.75736 99.0598 15.959 99.0598 31.0157C99.0598 32.4975 98.8731 33.9483 98.506 35.3712H95.4198C95.7838 33.9545 95.986 32.5068 95.986 31.0312C95.986 19.2078 83.7811 9.22576 67.0527 6.01416V8.91886H65.8891V5.80336C63.8438 5.45238 61.7814 5.20818 59.7104 5.07176V11.1478H58.5469V5.00666C57.5179 4.95623 56.4878 4.93142 55.4576 4.93226C54.4153 4.93226 53.3856 4.95706 52.3682 5.00666V11.154H51.2047V5.07796C49.1327 5.21289 47.0693 5.45606 45.0229 5.80646V8.92196H43.8593V6.02036C27.134 9.22576 14.9353 19.2078 14.9353 31.0312C14.9353 32.141 15.0442 33.2322 15.2558 34.311L13.1651 37.6652C12.3033 35.5532 11.8575 33.2956 11.8522 31.0157ZM55.4576 57.1239C42.6149 57.1239 31.1785 53.2768 23.7491 47.2783H20.47C28.4189 53.9433 41.1278 58.2678 55.4576 58.2678C69.8029 58.2678 82.5367 53.9371 90.4793 47.2473H87.2002C79.7771 53.2675 68.3158 57.1239 55.4576 57.1239ZM94.4647 45.9825H94.1785V46.7575H94.4958C94.8691 46.7575 95.0464 46.6428 95.0464 46.3762C95.0464 46.1065 94.8536 45.9825 94.4647 45.9825ZM93.5313 48.23V45.5764H94.5767C95.3389 45.5764 95.7122 45.8337 95.7122 46.3421C95.7122 46.6924 95.4945 46.9528 95.1367 47.0458L95.7278 48.23H95.006L94.4958 47.145H94.1785V48.23H93.5313ZM92.4891 45.7128C92.6943 45.3584 92.9909 45.0653 93.3481 44.8636C93.7053 44.6619 94.1102 44.5591 94.5207 44.5658C94.8423 44.5628 95.1612 44.6244 95.4584 44.7469C95.7555 44.8694 96.0249 45.0503 96.2505 45.2788C96.4684 45.4997 96.6405 45.7612 96.7569 46.0485C96.8732 46.3357 96.9316 46.643 96.9287 46.9528C96.9287 47.6131 96.6798 48.2021 96.2225 48.6454C95.7692 49.092 95.1581 49.3436 94.5207 49.346C94.2032 49.3449 93.8891 49.2801 93.5973 49.1555C93.3054 49.0309 93.0418 48.8489 92.822 48.6206C92.3845 48.1752 92.1408 47.576 92.1438 46.9528C92.1438 46.525 92.2496 46.1127 92.4922 45.7128H92.4891ZM95.9673 45.5485C95.7797 45.3583 95.5553 45.2081 95.3077 45.1069C95.0601 45.0056 94.7945 44.9555 94.5269 44.9595C94.2694 44.9548 94.0135 45.0017 93.7746 45.0976C93.5357 45.1935 93.3186 45.3362 93.1362 45.5175C92.7571 45.8966 92.5417 46.4083 92.5358 46.9435C92.5358 47.4705 92.7287 47.9665 93.1051 48.3447C93.2885 48.5351 93.5084 48.687 93.7518 48.7912C93.9952 48.8954 94.2571 48.9498 94.522 48.9512C94.7869 48.9527 95.0495 48.9011 95.294 48.7996C95.5385 48.698 95.7601 48.5486 95.9456 48.3602C96.1318 48.182 96.2801 47.9684 96.3816 47.7319C96.4832 47.4954 96.5359 47.241 96.5367 46.9838C96.5425 46.7188 96.4951 46.4554 96.3973 46.2089C96.2996 45.9624 96.1534 45.7379 95.9673 45.5485Z" fill="#FAFAFA"/>
</svg>
