<svg width="24" height="24" viewBox="0 0 24 24" fill="none" xmlns="http://www.w3.org/2000/svg">
<path d="M7.50983 13.0381L12.724 18.2663C12.9261 18.4694 13.0296 18.7145 13.0343 19.0018C13.039 19.289 12.9439 19.5358 12.749 19.7421C12.5468 19.9495 12.2962 20.0533 11.9972 20.0533C11.6982 20.0533 11.4542 19.9475 11.2653 19.7359L4.26415 12.749C4.16502 12.6546 4.08734 12.5414 4.0311 12.4092C3.97489 12.2771 3.94678 12.1355 3.94678 11.9843C3.94678 11.8593 3.97489 11.7311 4.0311 11.5997C4.08734 11.4682 4.16502 11.3557 4.26415 11.262L11.2903 4.25003C11.4971 4.04786 11.7432 3.94678 12.0286 3.94678C12.3139 3.94678 12.5576 4.04786 12.7598 4.25003C12.9547 4.46163 13.0522 4.71095 13.0522 4.998C13.0522 5.28505 12.9547 5.52196 12.7598 5.70873L7.50983 10.9587H19.4435C19.7394 10.9587 19.987 11.058 20.1861 11.2566C20.3852 11.4551 20.4848 11.6982 20.4848 11.9859C20.4848 12.2997 20.3852 12.5535 20.1861 12.7473C19.987 12.9412 19.7394 13.0381 19.4435 13.0381H7.50983Z" fill="#082D87"/>
</svg>
