<svg width="28" height="22" viewBox="0 0 28 22" fill="none" xmlns="http://www.w3.org/2000/svg">
<path d="M3.33268 21.6668C2.59935 21.6668 1.97157 21.4057 1.44935 20.8835C0.927127 20.3613 0.666016 19.7335 0.666016 19.0002V14.5002C0.666016 14.2557 0.743793 14.0446 0.899349 13.8668C1.0549 13.6891 1.2549 13.5779 1.49935 13.5335C2.03268 13.3557 2.47157 13.0335 2.81602 12.5668C3.16046 12.1002 3.33268 11.5779 3.33268 11.0002C3.33268 10.4224 3.16046 9.90016 2.81602 9.4335C2.47157 8.96683 2.03268 8.64461 1.49935 8.46683C1.2549 8.42238 1.0549 8.31127 0.899349 8.1335C0.743793 7.95572 0.666016 7.74461 0.666016 7.50016V3.00016C0.666016 2.26683 0.927127 1.63905 1.44935 1.11683C1.97157 0.594607 2.59935 0.333496 3.33268 0.333496H24.666C25.3993 0.333496 26.0271 0.594607 26.5494 1.11683C27.0716 1.63905 27.3327 2.26683 27.3327 3.00016V7.50016C27.3327 7.74461 27.2549 7.95572 27.0993 8.1335C26.9438 8.31127 26.7438 8.42238 26.4993 8.46683C25.966 8.64461 25.5271 8.96683 25.1827 9.4335C24.8382 9.90016 24.666 10.4224 24.666 11.0002C24.666 11.5779 24.8382 12.1002 25.1827 12.5668C25.5271 13.0335 25.966 13.3557 26.4993 13.5335C26.7438 13.5779 26.9438 13.6891 27.0993 13.8668C27.2549 14.0446 27.3327 14.2557 27.3327 14.5002V19.0002C27.3327 19.7335 27.0716 20.3613 26.5494 20.8835C26.0271 21.4057 25.3993 21.6668 24.666 21.6668H3.33268ZM13.9993 17.6668C14.3771 17.6668 14.6938 17.5391 14.9494 17.2835C15.2049 17.0279 15.3327 16.7113 15.3327 16.3335C15.3327 15.9557 15.2049 15.6391 14.9494 15.3835C14.6938 15.1279 14.3771 15.0002 13.9993 15.0002C13.6216 15.0002 13.3049 15.1279 13.0493 15.3835C12.7938 15.6391 12.666 15.9557 12.666 16.3335C12.666 16.7113 12.7938 17.0279 13.0493 17.2835C13.3049 17.5391 13.6216 17.6668 13.9993 17.6668ZM13.9993 12.3335C14.3771 12.3335 14.6938 12.2057 14.9494 11.9502C15.2049 11.6946 15.3327 11.3779 15.3327 11.0002C15.3327 10.6224 15.2049 10.3057 14.9494 10.0502C14.6938 9.79461 14.3771 9.66683 13.9993 9.66683C13.6216 9.66683 13.3049 9.79461 13.0493 10.0502C12.7938 10.3057 12.666 10.6224 12.666 11.0002C12.666 11.3779 12.7938 11.6946 13.0493 11.9502C13.3049 12.2057 13.6216 12.3335 13.9993 12.3335ZM13.9993 7.00016C14.3771 7.00016 14.6938 6.87238 14.9494 6.61683C15.2049 6.36127 15.3327 6.04461 15.3327 5.66683C15.3327 5.28905 15.2049 4.97238 14.9494 4.71683C14.6938 4.46127 14.3771 4.3335 13.9993 4.3335C13.6216 4.3335 13.3049 4.46127 13.0493 4.71683C12.7938 4.97238 12.666 5.28905 12.666 5.66683C12.666 6.04461 12.7938 6.36127 13.0493 6.61683C13.3049 6.87238 13.6216 7.00016 13.9993 7.00016Z" fill="#FAFAFA"/>
</svg>
