<svg width="24" height="24" viewBox="0 0 24 24" fill="none" xmlns="http://www.w3.org/2000/svg">
<mask id="mask0_4371_3807" style="mask-type:alpha" maskUnits="userSpaceOnUse" x="0" y="0" width="24" height="24">
<rect width="24" height="24" fill="#D9D9D9"/>
</mask>
<g mask="url(#mask0_4371_3807)">
<path d="M12.1438 21.165C10.8593 21.165 9.6633 20.9235 8.54731 20.4451C7.41518 19.9597 6.43902 19.3052 5.61106 18.4826C4.78312 17.6601 4.12491 16.6908 3.63696 15.5674C3.15607 14.4602 2.91343 13.2739 2.91343 12C2.91343 10.7261 3.15607 9.53984 3.63696 8.43264C4.12491 7.30917 4.78312 6.33991 5.61106 5.51735C6.43902 4.69476 7.41518 4.0403 8.54731 3.55495C9.6633 3.07652 10.8593 2.835 12.1438 2.835C13.4282 2.835 14.6243 3.07652 15.7403 3.55495C16.8724 4.0403 17.8486 4.69476 18.6765 5.51735C19.5045 6.33991 20.1627 7.30917 20.6506 8.43264C21.1315 9.53984 21.3741 10.7261 21.3741 12C21.3741 13.2739 21.1315 14.4602 20.6506 15.5674C20.1627 16.6908 19.5045 17.6601 18.6765 18.4826C17.8486 19.3052 16.8724 19.9597 15.7403 20.4451C14.6243 20.9235 13.4282 21.165 12.1438 21.165Z" stroke="white" stroke-width="1.67"/>
</g>
</svg>
