<svg width="40" height="40" viewBox="2 10 36 18" fill="none" xmlns="http://www.w3.org/2000/svg">
<path d="M3.5 29C3.075 29 2.71875 28.8563 2.43125 28.5688C2.14375 28.2812 2 27.925 2 27.5V26.6375C2 25.5625 2.55 24.6875 3.65 24.0125C4.75 23.3375 6.2 23 8 23C8.325 23 8.6375 23.0063 8.9375 23.0188C9.2375 23.0313 9.525 23.0625 9.8 23.1125C9.45 23.6375 9.1875 24.1875 9.0125 24.7625C8.8375 25.3375 8.75 25.9375 8.75 26.5625V29H3.5ZM12.5 29C12.075 29 11.7188 28.8563 11.4313 28.5688C11.1438 28.2812 11 27.925 11 27.5V26.5625C11 25.7625 11.2188 25.0313 11.6562 24.3688C12.0938 23.7063 12.7125 23.125 13.5125 22.625C14.3125 22.125 15.2688 21.75 16.3813 21.5C17.4938 21.25 18.7 21.125 20 21.125C21.325 21.125 22.5438 21.25 23.6562 21.5C24.7688 21.75 25.725 22.125 26.525 22.625C27.325 23.125 27.9375 23.7063 28.3625 24.3688C28.7875 25.0313 29 25.7625 29 26.5625V27.5C29 27.925 28.8563 28.2812 28.5688 28.5688C28.2813 28.8563 27.925 29 27.5 29H12.5ZM31.25 29V26.5625C31.25 25.9125 31.1688 25.3 31.0063 24.725C30.8438 24.15 30.6 23.6125 30.275 23.1125C30.55 23.0625 30.8313 23.0313 31.1188 23.0188C31.4063 23.0063 31.7 23 32 23C33.8 23 35.25 23.3313 36.35 23.9938C37.45 24.6563 38 25.5375 38 26.6375V27.5C38 27.925 37.8563 28.2812 37.5688 28.5688C37.2812 28.8563 36.925 29 36.5 29H31.25ZM8 21.5C7.175 21.5 6.46875 21.2063 5.88125 20.6188C5.29375 20.0312 5 19.325 5 18.5C5 17.65 5.29375 16.9375 5.88125 16.3625C6.46875 15.7875 7.175 15.5 8 15.5C8.85 15.5 9.5625 15.7875 10.1375 16.3625C10.7125 16.9375 11 17.65 11 18.5C11 19.325 10.7125 20.0312 10.1375 20.6188C9.5625 21.2063 8.85 21.5 8 21.5ZM32 21.5C31.175 21.5 30.4688 21.2063 29.8813 20.6188C29.2938 20.0312 29 19.325 29 18.5C29 17.65 29.2938 16.9375 29.8813 16.3625C30.4688 15.7875 31.175 15.5 32 15.5C32.85 15.5 33.5625 15.7875 34.1375 16.3625C34.7125 16.9375 35 17.65 35 18.5C35 19.325 34.7125 20.0312 34.1375 20.6188C33.5625 21.2063 32.85 21.5 32 21.5ZM20 20C18.75 20 17.6875 19.5625 16.8125 18.6875C15.9375 17.8125 15.5 16.75 15.5 15.5C15.5 14.225 15.9375 13.1562 16.8125 12.2938C17.6875 11.4313 18.75 11 20 11C21.275 11 22.3438 11.4313 23.2063 12.2938C24.0688 13.1562 24.5 14.225 24.5 15.5C24.5 16.75 24.0688 17.8125 23.2063 18.6875C22.3438 19.5625 21.275 20 20 20Z" fill="#072A7E"/>
</svg>
