<svg width="24" height="24" viewBox="0 0 24 24" fill="none" xmlns="http://www.w3.org/2000/svg">
<path d="M1.38462 21C0.992308 21 0.663462 20.8642 0.398078 20.5927C0.132693 20.3212 0 19.9847 0 19.5833V18.6979C0 17.9424 0.201923 17.2517 0.605769 16.626C1.00962 16.0003 1.58077 15.4514 2.31923 14.9792C3.05769 14.5069 3.94039 14.1528 4.96731 13.9167C5.99423 13.6806 7.10769 13.5625 8.30769 13.5625C9.53077 13.5625 10.6558 13.6806 11.6827 13.9167C12.7096 14.1528 13.5923 14.5069 14.3308 14.9792C15.0692 15.4514 15.6346 16.0003 16.0269 16.626C16.4192 17.2517 16.6154 17.9424 16.6154 18.6979V19.5833C16.6154 19.9847 16.4827 20.3212 16.2173 20.5927C15.9519 20.8642 15.6231 21 15.2308 21H1.38462ZM17.7692 21V18.6979C17.7692 18.084 17.6942 17.5056 17.5442 16.9625C17.3942 16.4194 17.1692 15.9118 16.8692 15.4396C17.1231 15.3924 17.3827 15.3628 17.6481 15.351C17.9135 15.3392 18.1846 15.3333 18.4615 15.3333C20.1231 15.3333 21.4615 15.6462 22.4769 16.2719C23.4923 16.8976 24 17.7299 24 18.7688V19.5833C24 19.9847 23.8673 20.3212 23.6019 20.5927C23.3365 20.8642 23.0077 21 22.6154 21H17.7692ZM18.4615 13.9167C17.7 13.9167 17.0481 13.6392 16.5058 13.0844C15.9635 12.5295 15.6923 11.8625 15.6923 11.0833C15.6923 10.2806 15.9635 9.60764 16.5058 9.06458C17.0481 8.52153 17.7 8.25 18.4615 8.25C19.2462 8.25 19.9038 8.52153 20.4346 9.06458C20.9654 9.60764 21.2308 10.2806 21.2308 11.0833C21.2308 11.8625 20.9654 12.5295 20.4346 13.0844C19.9038 13.6392 19.2462 13.9167 18.4615 13.9167ZM8.30769 12.5C7.15385 12.5 6.17308 12.0868 5.36539 11.2604C4.55769 10.434 4.15385 9.43056 4.15385 8.25C4.15385 7.04583 4.55769 6.03646 5.36539 5.22187C6.17308 4.40729 7.15385 4 8.30769 4C9.48462 4 10.4712 4.40729 11.2673 5.22187C12.0635 6.03646 12.4615 7.04583 12.4615 8.25C12.4615 9.43056 12.0635 10.434 11.2673 11.2604C10.4712 12.0868 9.48462 12.5 8.30769 12.5Z" fill="#072A7E"/>
</svg>
