<svg width="24" height="24" viewBox="0 0 24 24" fill="none" xmlns="http://www.w3.org/2000/svg">
<path d="M12 13.6274L13.5 14.7661C13.6833 14.9146 13.8833 14.9187 14.1 14.7784C14.3167 14.6382 14.3833 14.4525 14.3 14.2215L13.7 12.3402L15.375 11.053C15.5583 10.9045 15.6083 10.7188 15.525 10.496C15.4417 10.2732 15.2833 10.1618 15.05 10.1618H13.1L12.475 8.25578C12.3917 8.02475 12.2333 7.90923 12 7.90923C11.7667 7.90923 11.6083 8.02475 11.525 8.25578L10.9 10.1618H8.925C8.69167 10.1618 8.5375 10.2732 8.4625 10.496C8.3875 10.7188 8.44167 10.9045 8.625 11.053L10.25 12.3402L9.65 14.2462C9.56667 14.4773 9.625 14.6629 9.825 14.8032C10.025 14.9435 10.225 14.9393 10.425 14.7908L12 13.6274ZM4 19.6673C3.45 19.6673 2.97917 19.4734 2.5875 19.0856C2.19583 18.6978 2 18.2316 2 17.687V14.3453C2 14.1637 2.05833 14.0069 2.175 13.8749C2.29167 13.7429 2.44167 13.6604 2.625 13.6274C3.025 13.4954 3.35417 13.2561 3.6125 12.9095C3.87083 12.563 4 12.1752 4 11.7461C4 11.317 3.87083 10.9292 3.6125 10.5827C3.35417 10.2361 3.025 9.99681 2.625 9.86479C2.44167 9.83178 2.29167 9.74927 2.175 9.61725C2.05833 9.48523 2 9.32845 2 9.14693V5.80514C2 5.26056 2.19583 4.79436 2.5875 4.40655C2.97917 4.01873 3.45 3.82483 4 3.82483H20C20.55 3.82483 21.0208 4.01873 21.4125 4.40655C21.8042 4.79436 22 5.26056 22 5.80514V9.14693C22 9.32845 21.9417 9.48523 21.825 9.61725C21.7083 9.74927 21.5583 9.83178 21.375 9.86479C20.975 9.99681 20.6458 10.2361 20.3875 10.5827C20.1292 10.9292 20 11.317 20 11.7461C20 12.1752 20.1292 12.563 20.3875 12.9095C20.6458 13.2561 20.975 13.4954 21.375 13.6274C21.5583 13.6604 21.7083 13.7429 21.825 13.8749C21.9417 14.0069 22 14.1637 22 14.3453V17.687C22 18.2316 21.8042 18.6978 21.4125 19.0856C21.0208 19.4734 20.55 19.6673 20 19.6673H4Z" fill="white"/>
</svg>
