<svg width="28" height="28" viewBox="0 0 28 28" fill="none" xmlns="http://www.w3.org/2000/svg">
<path d="M13.9327 21.9998C14.3993 21.9998 14.7938 21.8387 15.116 21.5165C15.4382 21.1943 15.5993 20.7998 15.5993 20.3332C15.5993 19.8665 15.4382 19.4721 15.116 19.1498C14.7938 18.8276 14.3993 18.6665 13.9327 18.6665C13.466 18.6665 13.0716 18.8276 12.7493 19.1498C12.4271 19.4721 12.266 19.8665 12.266 20.3332C12.266 20.7998 12.4271 21.1943 12.7493 21.5165C13.0716 21.8387 13.466 21.9998 13.9327 21.9998ZM13.9993 27.3332C12.1549 27.3332 10.4216 26.9832 8.79935 26.2832C7.17713 25.5832 5.76602 24.6332 4.56602 23.4332C3.36602 22.2332 2.41602 20.8221 1.71602 19.1998C1.01602 17.5776 0.666016 15.8443 0.666016 13.9998C0.666016 12.1554 1.01602 10.4221 1.71602 8.79984C2.41602 7.17762 3.36602 5.7665 4.56602 4.5665C5.76602 3.3665 7.17713 2.4165 8.79935 1.7165C10.4216 1.0165 12.1549 0.666504 13.9993 0.666504C15.8438 0.666504 17.5771 1.0165 19.1994 1.7165C20.8216 2.4165 22.2327 3.3665 23.4327 4.5665C24.6327 5.7665 25.5827 7.17762 26.2827 8.79984C26.9827 10.4221 27.3327 12.1554 27.3327 13.9998C27.3327 15.8443 26.9827 17.5776 26.2827 19.1998C25.5827 20.8221 24.6327 22.2332 23.4327 23.4332C22.2327 24.6332 20.8216 25.5832 19.1994 26.2832C17.5771 26.9832 15.8438 27.3332 13.9993 27.3332ZM14.1327 8.2665C14.6882 8.2665 15.1716 8.44428 15.5827 8.79984C15.9938 9.15539 16.1994 9.59984 16.1994 10.1332C16.1994 10.6221 16.0493 11.0554 15.7493 11.4332C15.4493 11.8109 15.1105 12.1665 14.7327 12.4998C14.2216 12.9443 13.7716 13.4332 13.3827 13.9665C12.9938 14.4998 12.7993 15.0998 12.7993 15.7665C12.7993 16.0776 12.916 16.3387 13.1493 16.5498C13.3827 16.761 13.6549 16.8665 13.966 16.8665C14.2993 16.8665 14.5827 16.7554 14.816 16.5332C15.0493 16.3109 15.1993 16.0332 15.266 15.6998C15.3549 15.2332 15.5549 14.8165 15.866 14.4498C16.1771 14.0832 16.5105 13.7332 16.866 13.3998C17.3771 12.9109 17.816 12.3776 18.1827 11.7998C18.5493 11.2221 18.7327 10.5776 18.7327 9.8665C18.7327 8.73317 18.2716 7.80539 17.3493 7.08317C16.4271 6.36095 15.3549 5.99984 14.1327 5.99984C13.2882 5.99984 12.4827 6.17762 11.716 6.53317C10.9493 6.88873 10.366 7.43317 9.96602 8.1665C9.81046 8.43317 9.76046 8.7165 9.81602 9.0165C9.87157 9.3165 10.0216 9.54428 10.266 9.69984C10.5771 9.87761 10.8993 9.93317 11.2327 9.8665C11.566 9.79984 11.8438 9.61095 12.066 9.29984C12.3105 8.9665 12.616 8.71095 12.9827 8.53317C13.3493 8.35539 13.7327 8.2665 14.1327 8.2665Z" fill="#FAFAFA"/>
</svg>
