<svg width="38" height="38" viewBox="0 0 38 38" fill="none" xmlns="http://www.w3.org/2000/svg">
<path d="M19.0011 18.9977C16.4345 18.9977 14.2373 18.0838 12.4095 16.2561C10.5817 14.4283 9.66781 12.2311 9.66781 9.66439C9.66781 7.09772 10.5817 4.9005 12.4095 3.07272C14.2373 1.24494 16.4345 0.331055 19.0011 0.331055C21.5678 0.331055 23.765 1.24494 25.5928 3.07272C27.4206 4.9005 28.3345 7.09772 28.3345 9.66439C28.3345 12.2311 27.4206 14.4283 25.5928 16.2561C23.765 18.0838 21.5678 18.9977 19.0011 18.9977ZM0.334473 32.9977V31.1311C0.334473 29.8088 0.674751 28.5936 1.35531 27.4852C2.03586 26.3769 2.94003 25.5311 4.06781 24.9477C6.47892 23.7422 8.92892 22.838 11.4178 22.2352C13.9067 21.6325 16.4345 21.3311 19.0011 21.3311C21.5678 21.3311 24.0956 21.6325 26.5845 22.2352C29.0734 22.838 31.5234 23.7422 33.9345 24.9477C35.0623 25.5311 35.9664 26.3769 36.647 27.4852C37.3275 28.5936 37.6678 29.8088 37.6678 31.1311V32.9977C37.6678 34.2811 37.2109 35.3797 36.297 36.2936C35.3831 37.2075 34.2845 37.6644 33.0012 37.6644H5.00114C3.71781 37.6644 2.6192 37.2075 1.70531 36.2936C0.791417 35.3797 0.334473 34.2811 0.334473 32.9977Z" fill="white"/>
</svg>
