<svg width="14" height="12" viewBox="0 0 14 12" fill="none" xmlns="http://www.w3.org/2000/svg">
<path d="M7.00016 9.66667C7.8335 9.66667 8.54183 9.375 9.12516 8.79167C9.7085 8.20833 10.0002 7.5 10.0002 6.66667C10.0002 5.83333 9.7085 5.125 9.12516 4.54167C8.54183 3.95833 7.8335 3.66667 7.00016 3.66667C6.16683 3.66667 5.4585 3.95833 4.87516 4.54167C4.29183 5.125 4.00016 5.83333 4.00016 6.66667C4.00016 7.5 4.29183 8.20833 4.87516 8.79167C5.4585 9.375 6.16683 9.66667 7.00016 9.66667ZM7.00016 8.33333C6.5335 8.33333 6.13905 8.17222 5.81683 7.85C5.49461 7.52778 5.3335 7.13333 5.3335 6.66667C5.3335 6.2 5.49461 5.80556 5.81683 5.48333C6.13905 5.16111 6.5335 5 7.00016 5C7.46683 5 7.86127 5.16111 8.1835 5.48333C8.50572 5.80556 8.66683 6.2 8.66683 6.66667C8.66683 7.13333 8.50572 7.52778 8.1835 7.85C7.86127 8.17222 7.46683 8.33333 7.00016 8.33333ZM1.66683 12C1.30016 12 0.986274 11.8694 0.725163 11.6083C0.464052 11.3472 0.333496 11.0333 0.333496 10.6667V2.66667C0.333496 2.3 0.464052 1.98611 0.725163 1.725C0.986274 1.46389 1.30016 1.33333 1.66683 1.33333H3.76683L5.00016 0H9.00016L10.2335 1.33333H12.3335C12.7002 1.33333 13.0141 1.46389 13.2752 1.725C13.5363 1.98611 13.6668 2.3 13.6668 2.66667V10.6667C13.6668 11.0333 13.5363 11.3472 13.2752 11.6083C13.0141 11.8694 12.7002 12 12.3335 12H1.66683Z" fill="#082D87"/>
</svg>
