<svg width="109" height="103" viewBox="0 0 109 103" fill="none" xmlns="http://www.w3.org/2000/svg">
<g filter="url(#filter0_d_7305_9152)">
<path d="M48.7555 1.67515C52.46 -0.023281 56.7206 -0.02328 60.425 1.67515L89.459 14.9868C93.3676 16.7788 96.236 20.2677 97.2384 24.4491L104.149 53.274C105.182 57.5844 104.113 62.1296 101.267 65.5276L81.5737 89.0382C78.9137 92.2139 74.9839 94.0484 70.8413 94.0484H38.3392C34.1967 94.0484 30.2669 92.2139 27.6068 89.0382L7.91356 65.5276C5.06727 62.1296 3.99832 57.5844 5.03169 53.274L11.9421 24.4491C12.9446 20.2677 15.8129 16.7788 19.7216 14.9868L48.7555 1.67515Z" fill="#4FB246"/>
<path d="M49.1723 2.58416C52.6121 1.00705 56.5684 1.00705 60.0083 2.58416L89.0422 15.8958C92.6717 17.5599 95.3352 20.7995 96.266 24.6822L103.176 53.5071C104.136 57.5097 103.143 61.7302 100.5 64.8855L80.8071 88.3961C78.3371 91.3449 74.688 93.0484 70.8413 93.0484H38.3392C34.4926 93.0484 30.8435 91.3449 28.3734 88.3961L8.68016 64.8855C6.03718 61.7302 5.04457 57.5097 6.00414 53.5071L12.9146 24.6822C13.8454 20.7995 16.5089 17.5599 20.1384 15.8958L49.1723 2.58416Z" stroke="#FAFAFA" stroke-width="2"/>
</g>
<defs>
<filter id="filter0_d_7305_9152" x="0.645996" y="0.401367" width="107.889" height="101.647" filterUnits="userSpaceOnUse" color-interpolation-filters="sRGB">
<feFlood flood-opacity="0" result="BackgroundImageFix"/>
<feColorMatrix in="SourceAlpha" type="matrix" values="0 0 0 0 0 0 0 0 0 0 0 0 0 0 0 0 0 0 127 0" result="hardAlpha"/>
<feOffset dy="4"/>
<feGaussianBlur stdDeviation="2"/>
<feComposite in2="hardAlpha" operator="out"/>
<feColorMatrix type="matrix" values="0 0 0 0 0 0 0 0 0 0 0 0 0 0 0 0 0 0 0.25 0"/>
<feBlend mode="normal" in2="BackgroundImageFix" result="effect1_dropShadow_7305_9152"/>
<feBlend mode="normal" in="SourceGraphic" in2="effect1_dropShadow_7305_9152" result="shape"/>
</filter>
</defs>
</svg>
