<svg width="24" height="24" viewBox="0 0 24 24" fill="none" xmlns="http://www.w3.org/2000/svg">
<mask id="mask0_4525_1348" style="mask-type:alpha" maskUnits="userSpaceOnUse" x="0" y="0" width="24" height="24">
<rect width="24" height="24" fill="#D9D9D9"/>
</mask>
<g mask="url(#mask0_4525_1348)">
<path d="M10.825 22C10.375 22 9.98748 21.85 9.66248 21.55C9.33748 21.25 9.14165 20.8833 9.07498 20.45L8.84998 18.8C8.63331 18.7167 8.42915 18.6167 8.23748 18.5C8.04581 18.3833 7.85831 18.2583 7.67498 18.125L6.12498 18.775C5.70831 18.9583 5.29165 18.975 4.87498 18.825C4.45831 18.675 4.13331 18.4083 3.89998 18.025L2.72498 15.975C2.49165 15.5917 2.42498 15.1833 2.52498 14.75C2.62498 14.3167 2.84998 13.9583 3.19998 13.675L4.52498 12.675C4.50831 12.5583 4.49998 12.4458 4.49998 12.3375V11.6625C4.49998 11.5542 4.50831 11.4417 4.52498 11.325L3.19998 10.325C2.84998 10.0417 2.62498 9.68333 2.52498 9.25C2.42498 8.81667 2.49165 8.40833 2.72498 8.025L3.89998 5.975C4.13331 5.59167 4.45831 5.325 4.87498 5.175C5.29165 5.025 5.70831 5.04167 6.12498 5.225L7.67498 5.875C7.85831 5.74167 8.04998 5.61667 8.24998 5.5C8.44998 5.38333 8.64998 5.28333 8.84998 5.2L9.07498 3.55C9.14165 3.11667 9.33748 2.75 9.66248 2.45C9.98748 2.15 10.375 2 10.825 2H13.175C13.625 2 14.0125 2.15 14.3375 2.45C14.6625 2.75 14.8583 3.11667 14.925 3.55L15.15 5.2C15.3666 5.28333 15.5708 5.38333 15.7625 5.5C15.9541 5.61667 16.1416 5.74167 16.325 5.875L17.875 5.225C18.2916 5.04167 18.7083 5.025 19.125 5.175C19.5416 5.325 19.8666 5.59167 20.1 5.975L21.275 8.025C21.5083 8.40833 21.575 8.81667 21.475 9.25C21.375 9.68333 21.15 10.0417 20.8 10.325L19.475 11.325C19.4916 11.4417 19.5 11.5542 19.5 11.6625V12.3375C19.5 12.4458 19.4833 12.5583 19.45 12.675L20.775 13.675C21.125 13.9583 21.35 14.3167 21.45 14.75C21.55 15.1833 21.4833 15.5917 21.25 15.975L20.05 18.025C19.8166 18.4083 19.4916 18.675 19.075 18.825C18.6583 18.975 18.2416 18.9583 17.825 18.775L16.325 18.125C16.1416 18.2583 15.95 18.3833 15.75 18.5C15.55 18.6167 15.35 18.7167 15.15 18.8L14.925 20.45C14.8583 20.8833 14.6625 21.25 14.3375 21.55C14.0125 21.85 13.625 22 13.175 22H10.825ZM12.05 15.575C12.1833 15.575 12.3083 15.5542 12.425 15.5125C12.5416 15.4708 12.65 15.4 12.75 15.3L15.55 12.5C15.8333 12.2167 16.0166 11.8708 16.1 11.4625C16.1833 11.0542 16.1416 10.6583 15.975 10.275C15.8083 9.89167 15.5583 9.58333 15.225 9.35C14.8916 9.11667 14.5166 9 14.1 9C13.6833 9 13.3083 9.12917 12.975 9.3875C12.6416 9.64583 12.3333 9.91667 12.05 10.2C11.75 9.91667 11.4375 9.64583 11.1125 9.3875C10.7875 9.12917 10.4166 9 9.99998 9C9.58331 9 9.20415 9.1125 8.86248 9.3375C8.52081 9.5625 8.26665 9.86667 8.09998 10.25C7.93331 10.6333 7.89581 11.0292 7.98748 11.4375C8.07915 11.8458 8.26665 12.2 8.54998 12.5L11.325 15.3C11.425 15.4 11.5375 15.4708 11.6625 15.5125C11.7875 15.5542 11.9166 15.575 12.05 15.575Z" fill="white"/>
</g>
</svg>
