<svg width="25" height="25" viewBox="0 0 25 25" fill="none" xmlns="http://www.w3.org/2000/svg">
<mask id="mask0_4562_4910" style="mask-type:alpha" maskUnits="userSpaceOnUse" x="0" y="0" width="25" height="25">
<rect x="0.472656" y="0.665894" width="24" height="24" fill="#D9D9D9"/>
</mask>
<g mask="url(#mask0_4562_4910)">
<path d="M11.4227 13.3659L10.0227 11.9659C9.82266 11.7659 9.58932 11.6659 9.32266 11.6659C9.05599 11.6659 8.82266 11.7659 8.62266 11.9659C8.42266 12.1659 8.32266 12.4034 8.32266 12.6784C8.32266 12.9534 8.42266 13.1909 8.62266 13.3909L10.7227 15.5159C10.9227 15.7159 11.156 15.8159 11.4227 15.8159C11.6893 15.8159 11.9227 15.7159 12.1227 15.5159L16.3727 11.2659C16.5727 11.0659 16.6727 10.8284 16.6727 10.5534C16.6727 10.2784 16.5727 10.0409 16.3727 9.84092C16.1727 9.64092 15.9352 9.54092 15.6602 9.54092C15.3852 9.54092 15.1477 9.64092 14.9477 9.84092L11.4227 13.3659ZM12.4727 22.5659C12.356 22.5659 12.2477 22.5576 12.1477 22.5409C12.0477 22.5243 11.9477 22.4993 11.8477 22.4659C9.59766 21.7159 7.80599 20.3284 6.47266 18.3034C5.13932 16.2784 4.47266 14.0993 4.47266 11.7659V7.04092C4.47266 6.62425 4.59349 6.24925 4.83516 5.91592C5.07682 5.58258 5.38932 5.34092 5.77266 5.19092L11.7727 2.94092C12.006 2.85758 12.2393 2.81592 12.4727 2.81592C12.706 2.81592 12.9393 2.85758 13.1727 2.94092L19.1727 5.19092C19.556 5.34092 19.8685 5.58258 20.1102 5.91592C20.3518 6.24925 20.4727 6.62425 20.4727 7.04092V11.7659C20.4727 14.0993 19.806 16.2784 18.4727 18.3034C17.1393 20.3284 15.3477 21.7159 13.0977 22.4659C12.9977 22.4993 12.8977 22.5243 12.7977 22.5409C12.6977 22.5576 12.5893 22.5659 12.4727 22.5659Z" fill="#082D87"/>
</g>
</svg>
