<svg width="18" height="18" viewBox="0 0 18 18" fill="none" xmlns="http://www.w3.org/2000/svg">
<path d="M17.71 16.2871L14.31 12.8971C15.407 11.4995 16.0022 9.77373 16 7.99707C16 6.41482 15.5308 4.8681 14.6518 3.55251C13.7727 2.23692 12.5233 1.21154 11.0615 0.606038C9.59966 0.000536561 7.99113 -0.15789 6.43928 0.150792C4.88743 0.459473 3.46197 1.2214 2.34315 2.34022C1.22433 3.45904 0.462403 4.8845 0.153721 6.43635C-0.15496 7.9882 0.00346625 9.59673 0.608967 11.0585C1.21447 12.5204 2.23985 13.7698 3.55544 14.6488C4.87103 15.5279 6.41775 15.9971 8 15.9971C9.77666 15.9993 11.5025 15.4041 12.9 14.3071L16.29 17.7071C16.383 17.8008 16.4936 17.8752 16.6154 17.926C16.7373 17.9767 16.868 18.0029 17 18.0029C17.132 18.0029 17.2627 17.9767 17.3846 17.926C17.5064 17.8752 17.617 17.8008 17.71 17.7071C17.8037 17.6141 17.8781 17.5035 17.9289 17.3817C17.9797 17.2598 18.0058 17.1291 18.0058 16.9971C18.0058 16.8651 17.9797 16.7344 17.9289 16.6125C17.8781 16.4906 17.8037 16.38 17.71 16.2871ZM2 7.99707C2 6.81039 2.3519 5.65035 3.01119 4.66365C3.67047 3.67696 4.60755 2.90792 5.7039 2.4538C6.80026 1.99967 8.00666 1.88085 9.17055 2.11236C10.3344 2.34387 11.4035 2.91532 12.2426 3.75443C13.0818 4.59355 13.6532 5.66265 13.8847 6.82653C14.1162 7.99042 13.9974 9.19682 13.5433 10.2932C13.0892 11.3895 12.3201 12.3266 11.3334 12.9859C10.3467 13.6452 9.18669 13.9971 8 13.9971C6.4087 13.9971 4.88258 13.3649 3.75736 12.2397C2.63214 11.1145 2 9.58837 2 7.99707Z" fill="#FAFAFA"/>
</svg>
