<svg width="26" height="28" viewBox="0 0 26 28" fill="none" xmlns="http://www.w3.org/2000/svg">
<path d="M11.4333 27.3332C10.8333 27.3332 10.3166 27.1332 9.88331 26.7332C9.44997 26.3332 9.18886 25.8443 9.09997 25.2665L8.79997 23.0665C8.51109 22.9554 8.23886 22.8221 7.98331 22.6665C7.72775 22.5109 7.47775 22.3443 7.23331 22.1665L5.16664 23.0332C4.61109 23.2776 4.05553 23.2998 3.49997 23.0998C2.94442 22.8998 2.51109 22.5443 2.19997 22.0332L0.633307 19.2998C0.322196 18.7887 0.233307 18.2443 0.366641 17.6665C0.499974 17.0887 0.799974 16.6109 1.26664 16.2332L3.03331 14.8998C3.01109 14.7443 2.99997 14.5943 2.99997 14.4498V13.5498C2.99997 13.4054 3.01109 13.2554 3.03331 13.0998L1.26664 11.7665C0.799974 11.3887 0.499974 10.9109 0.366641 10.3332C0.233307 9.75539 0.322196 9.21095 0.633307 8.69984L2.19997 5.9665C2.51109 5.45539 2.94442 5.09984 3.49997 4.89984C4.05553 4.69984 4.61109 4.72206 5.16664 4.9665L7.23331 5.83317C7.47775 5.65539 7.73331 5.48873 7.99997 5.33317C8.26664 5.17762 8.53331 5.04428 8.79997 4.93317L9.09997 2.73317C9.18886 2.15539 9.44997 1.6665 9.88331 1.2665C10.3166 0.866504 10.8333 0.666504 11.4333 0.666504H14.5666C15.1666 0.666504 15.6833 0.866504 16.1166 1.2665C16.55 1.6665 16.8111 2.15539 16.9 2.73317L17.2 4.93317C17.4889 5.04428 17.7611 5.17762 18.0166 5.33317C18.2722 5.48873 18.5222 5.65539 18.7666 5.83317L20.8333 4.9665C21.3889 4.72206 21.9444 4.69984 22.5 4.89984C23.0555 5.09984 23.4889 5.45539 23.8 5.9665L25.3666 8.69984C25.6778 9.21095 25.7666 9.75539 25.6333 10.3332C25.5 10.9109 25.2 11.3887 24.7333 11.7665L22.9666 13.0998C22.9889 13.2554 23 13.4054 23 13.5498V14.4498C23 14.5943 22.9778 14.7443 22.9333 14.8998L24.7 16.2332C25.1666 16.6109 25.4666 17.0887 25.6 17.6665C25.7333 18.2443 25.6444 18.7887 25.3333 19.2998L23.7333 22.0332C23.4222 22.5443 22.9889 22.8998 22.4333 23.0998C21.8778 23.2998 21.3222 23.2776 20.7666 23.0332L18.7666 22.1665C18.5222 22.3443 18.2666 22.5109 18 22.6665C17.7333 22.8221 17.4666 22.9554 17.2 23.0665L16.9 25.2665C16.8111 25.8443 16.55 26.3332 16.1166 26.7332C15.6833 27.1332 15.1666 27.3332 14.5666 27.3332H11.4333ZM13.0666 18.6665C14.3555 18.6665 15.4555 18.2109 16.3666 17.2998C17.2778 16.3887 17.7333 15.2887 17.7333 13.9998C17.7333 12.7109 17.2778 11.6109 16.3666 10.6998C15.4555 9.78873 14.3555 9.33317 13.0666 9.33317C11.7555 9.33317 10.65 9.78873 9.74997 10.6998C8.84997 11.6109 8.39997 12.7109 8.39997 13.9998C8.39997 15.2887 8.84997 16.3887 9.74997 17.2998C10.65 18.2109 11.7555 18.6665 13.0666 18.6665Z" fill="#FAFAFA"/>
</svg>
