<svg width="24" height="24" viewBox="0 0 24 24" fill="none" xmlns="http://www.w3.org/2000/svg">
<path d="M9.07501 20.975C8.29168 21.0583 7.34585 21.0375 6.23751 20.9125C5.12918 20.7875 4.28335 20.5833 3.70001 20.3C3.46668 19.7666 3.27085 18.9333 3.11251 17.8C2.95418 16.6666 2.91668 15.7 3.00001 14.9L9.07501 20.975ZM11.45 20.575L3.40001 12.525C3.68335 11.275 4.09585 10.1375 4.63751 9.11248C5.17918 8.08748 5.80835 7.20831 6.52501 6.47498C7.24168 5.75831 8.11251 5.13748 9.13751 4.61248C10.1625 4.08748 11.2667 3.69165 12.45 3.42498L20.55 11.525C20.2833 12.7583 19.8917 13.8916 19.375 14.925C18.8583 15.9583 18.2417 16.8333 17.525 17.55C16.775 18.2833 15.8792 18.9125 14.8375 19.4375C13.7958 19.9625 12.6667 20.3416 11.45 20.575ZM10.1 15.3L15.3 10.1C15.4833 9.91665 15.575 9.68331 15.575 9.39998C15.575 9.11665 15.4833 8.88331 15.3 8.69998C15.1167 8.51665 14.8833 8.42498 14.6 8.42498C14.3167 8.42498 14.0833 8.51665 13.9 8.69998L8.70001 13.9C8.51668 14.0833 8.42501 14.3166 8.42501 14.6C8.42501 14.8833 8.51668 15.1166 8.70001 15.3C8.88335 15.4833 9.11668 15.575 9.40001 15.575C9.68335 15.575 9.91668 15.4833 10.1 15.3ZM20.95 9.14998L14.875 3.02498C15.675 2.92498 16.6583 2.94165 17.825 3.07498C18.9917 3.20831 19.8167 3.41665 20.3 3.69998C20.6 4.36665 20.8083 5.22915 20.925 6.28748C21.0417 7.34581 21.05 8.29998 20.95 9.14998Z" fill="white"/>
</svg>
