<svg width="24" height="24" viewBox="0 0 24 24" fill="none" xmlns="http://www.w3.org/2000/svg">
<path d="M2.4 22C1.74 22 1.175 21.7674 0.705 21.3023C0.235 20.8372 0 20.2781 0 19.625V15.6172C0 15.3995 0.07 15.2115 0.21 15.0531C0.35 14.8948 0.53 14.7958 0.75 14.7562C1.23 14.5979 1.625 14.3109 1.935 13.8953C2.245 13.4797 2.4 13.0146 2.4 12.5C2.4 11.9854 2.245 11.5203 1.935 11.1047C1.625 10.6891 1.23 10.4021 0.75 10.2438C0.53 10.2042 0.35 10.1052 0.21 9.94688C0.07 9.78854 0 9.60052 0 9.38281V5.375C0 4.72187 0.235 4.16276 0.705 3.69766C1.175 3.23255 1.74 3 2.4 3H21.6C22.26 3 22.825 3.23255 23.295 3.69766C23.765 4.16276 24 4.72187 24 5.375V9.38281C24 9.60052 23.93 9.78854 23.79 9.94688C23.65 10.1052 23.47 10.2042 23.25 10.2438C22.77 10.4021 22.375 10.6891 22.065 11.1047C21.755 11.5203 21.6 11.9854 21.6 12.5C21.6 13.0146 21.755 13.4797 22.065 13.8953C22.375 14.3109 22.77 14.5979 23.25 14.7562C23.47 14.7958 23.65 14.8948 23.79 15.0531C23.93 15.2115 24 15.3995 24 15.6172V19.625C24 20.2781 23.765 20.8372 23.295 21.3023C22.825 21.7674 22.26 22 21.6 22H2.4ZM12 18.4375C12.34 18.4375 12.625 18.3237 12.855 18.0961C13.085 17.8685 13.2 17.5865 13.2 17.25C13.2 16.9135 13.085 16.6315 12.855 16.4039C12.625 16.1763 12.34 16.0625 12 16.0625C11.66 16.0625 11.375 16.1763 11.145 16.4039C10.915 16.6315 10.8 16.9135 10.8 17.25C10.8 17.5865 10.915 17.8685 11.145 18.0961C11.375 18.3237 11.66 18.4375 12 18.4375ZM12 13.6875C12.34 13.6875 12.625 13.5737 12.855 13.3461C13.085 13.1185 13.2 12.8365 13.2 12.5C13.2 12.1635 13.085 11.8815 12.855 11.6539C12.625 11.4263 12.34 11.3125 12 11.3125C11.66 11.3125 11.375 11.4263 11.145 11.6539C10.915 11.8815 10.8 12.1635 10.8 12.5C10.8 12.8365 10.915 13.1185 11.145 13.3461C11.375 13.5737 11.66 13.6875 12 13.6875ZM12 8.9375C12.34 8.9375 12.625 8.8237 12.855 8.59609C13.085 8.36849 13.2 8.08646 13.2 7.75C13.2 7.41354 13.085 7.13151 12.855 6.90391C12.625 6.6763 12.34 6.5625 12 6.5625C11.66 6.5625 11.375 6.6763 11.145 6.90391C10.915 7.13151 10.8 7.41354 10.8 7.75C10.8 8.08646 10.915 8.36849 11.145 8.59609C11.375 8.8237 11.66 8.9375 12 8.9375Z" fill="#072A7E"/>
</svg>
