<svg width="24" height="24" viewBox="0 0 24 24" fill="none" xmlns="http://www.w3.org/2000/svg">
<path opacity="0.5" d="M3 6.19997V3.79997C3 3.61664 3.07917 3.47497 3.2375 3.37497C3.39583 3.27497 3.55833 3.26664 3.725 3.34997L6.1 4.54997C6.28333 4.6333 6.375 4.7833 6.375 4.99997C6.375 5.21664 6.28333 5.36664 6.1 5.44997L3.725 6.64997C3.55833 6.7333 3.39583 6.72497 3.2375 6.62497C3.07917 6.52497 3 6.3833 3 6.19997ZM18 6.19997V3.79997C18 3.61664 18.0792 3.47497 18.2375 3.37497C18.3958 3.27497 18.5583 3.26664 18.725 3.34997L21.1 4.54997C21.2833 4.6333 21.375 4.7833 21.375 4.99997C21.375 5.21664 21.2833 5.36664 21.1 5.44997L18.725 6.64997C18.5583 6.7333 18.3958 6.72497 18.2375 6.62497C18.0792 6.52497 18 6.3833 18 6.19997ZM11 5.19997V2.79997C11 2.61664 11.0792 2.47497 11.2375 2.37497C11.3958 2.27497 11.5583 2.26664 11.725 2.34997L14.1 3.54997C14.2833 3.6333 14.375 3.7833 14.375 3.99997C14.375 4.21664 14.2833 4.36664 14.1 4.44997L11.725 5.64997C11.5583 5.7333 11.3958 5.72497 11.2375 5.62497C11.0792 5.52497 11 5.3833 11 5.19997ZM10.15 21.975C7.81667 21.8416 5.875 21.4958 4.325 20.9375C2.775 20.3791 2 19.7333 2 19V9.99997C2 9.5833 2.2625 9.1958 2.7875 8.83747C3.3125 8.47914 4.025 8.16247 4.925 7.88747C5.825 7.61247 6.88333 7.3958 8.1 7.23747C9.31667 7.07914 10.6167 6.99997 12 6.99997C13.3833 6.99997 14.6833 7.07914 15.9 7.23747C17.1167 7.3958 18.175 7.61247 19.075 7.88747C19.975 8.16247 20.6875 8.47914 21.2125 8.83747C21.7375 9.1958 22 9.5833 22 9.99997V19C22 19.75 21.2208 20.4 19.6625 20.95C18.1042 21.5 16.1583 21.8416 13.825 21.975C13.5917 21.9916 13.3958 21.9208 13.2375 21.7625C13.0792 21.6041 13 21.4083 13 21.175V18H11V21.15C11 21.3833 10.9167 21.5833 10.75 21.75C10.5833 21.9166 10.3833 21.9916 10.15 21.975ZM12 11C13.6167 11 15.0125 10.9041 16.1875 10.7125C17.3625 10.5208 18.3 10.3 19 10.05C19 9.96664 18.3667 9.7708 17.1 9.46247C15.8333 9.15414 14.1333 8.99997 12 8.99997C9.86667 8.99997 8.16667 9.15414 6.9 9.46247C5.63333 9.7708 5 9.96664 5 10.05C5.7 10.3 6.6375 10.5208 7.8125 10.7125C8.9875 10.9041 10.3833 11 12 11ZM9 19.85V18C9 17.45 9.19583 16.9791 9.5875 16.5875C9.97917 16.1958 10.45 16 11 16H13C13.55 16 14.0208 16.1958 14.4125 16.5875C14.8042 16.9791 15 17.45 15 18V19.85C16.3333 19.7166 17.425 19.5208 18.275 19.2625C19.125 19.0041 19.7 18.775 20 18.575V11.8C19.0833 12.1666 17.9333 12.4583 16.55 12.675C15.1667 12.8916 13.65 13 12 13C10.35 13 8.83333 12.8916 7.45 12.675C6.06667 12.4583 4.91667 12.1666 4 11.8V18.575C4.3 18.775 4.875 19.0041 5.725 19.2625C6.575 19.5208 7.66667 19.7166 9 19.85Z" fill="white"/>
</svg>
