<svg width="24" height="24" viewBox="0 0 24 24" fill="none" xmlns="http://www.w3.org/2000/svg">
<path d="M3 6.19997V3.79997C3 3.61664 3.07917 3.47497 3.2375 3.37497C3.39583 3.27497 3.55833 3.26664 3.725 3.34997L6.1 4.54997C6.28333 4.6333 6.375 4.7833 6.375 4.99997C6.375 5.21664 6.28333 5.36664 6.1 5.44997L3.725 6.64997C3.55833 6.7333 3.39583 6.72497 3.2375 6.62497C3.07917 6.52497 3 6.3833 3 6.19997ZM18 6.19997V3.79997C18 3.61664 18.0792 3.47497 18.2375 3.37497C18.3958 3.27497 18.5583 3.26664 18.725 3.34997L21.1 4.54997C21.2833 4.6333 21.375 4.7833 21.375 4.99997C21.375 5.21664 21.2833 5.36664 21.1 5.44997L18.725 6.64997C18.5583 6.7333 18.3958 6.72497 18.2375 6.62497C18.0792 6.52497 18 6.3833 18 6.19997ZM11 5.19997V2.79997C11 2.61664 11.0792 2.47497 11.2375 2.37497C11.3958 2.27497 11.5583 2.26664 11.725 2.34997L14.1 3.54997C14.2833 3.6333 14.375 3.7833 14.375 3.99997C14.375 4.21664 14.2833 4.36664 14.1 4.44997L11.725 5.64997C11.5583 5.7333 11.3958 5.72497 11.2375 5.62497C11.0792 5.52497 11 5.3833 11 5.19997ZM8.4 21.8C6.76667 21.6166 5.29167 21.2875 3.975 20.8125C2.65833 20.3375 2 19.7333 2 19V9.99997C2 9.5833 2.2625 9.1958 2.7875 8.83747C3.3125 8.47914 4.025 8.16247 4.925 7.88747C5.825 7.61247 6.88333 7.3958 8.1 7.23747C9.31667 7.07914 10.6167 6.99997 12 6.99997C13.3833 6.99997 14.6833 7.07914 15.9 7.23747C17.1167 7.3958 18.175 7.61247 19.075 7.88747C19.975 8.16247 20.6875 8.47914 21.2125 8.83747C21.7375 9.1958 22 9.5833 22 9.99997V19C22 19.75 21.3375 20.3625 20.0125 20.8375C18.6875 21.3125 17.2083 21.6416 15.575 21.825C15.425 21.8416 15.2917 21.7958 15.175 21.6875C15.0583 21.5791 15 21.45 15 21.3V20C15 19.1666 14.7083 18.4583 14.125 17.875C13.5417 17.2916 12.8333 17 12 17C11.1667 17 10.4583 17.2916 9.875 17.875C9.29167 18.4583 9 19.1666 9 20V21.275C9 21.4416 8.94167 21.575 8.825 21.675C8.70833 21.775 8.56667 21.8166 8.4 21.8ZM12 11C13.6167 11 15.0125 10.9041 16.1875 10.7125C17.3625 10.5208 18.3 10.3 19 10.05C19 9.96664 18.3667 9.7708 17.1 9.46247C15.8333 9.15414 14.1333 8.99997 12 8.99997C9.86667 8.99997 8.16667 9.15414 6.9 9.46247C5.63333 9.7708 5 9.96664 5 10.05C5.7 10.3 6.6375 10.5208 7.8125 10.7125C8.9875 10.9041 10.3833 11 12 11Z" fill="white"/>
</svg>
