<svg width="22" height="28" viewBox="0 0 22 28" fill="none" xmlns="http://www.w3.org/2000/svg">
<path d="M9.60065 14.9334L7.73398 13.0667C7.46732 12.8 7.15621 12.6667 6.80065 12.6667C6.4451 12.6667 6.13398 12.8 5.86732 13.0667C5.60065 13.3334 5.46732 13.65 5.46732 14.0167C5.46732 14.3834 5.60065 14.7 5.86732 14.9667L8.66732 17.8C8.93398 18.0667 9.2451 18.2 9.60065 18.2C9.95621 18.2 10.2673 18.0667 10.534 17.8L16.2007 12.1334C16.4673 11.8667 16.6006 11.55 16.6006 11.1834C16.6006 10.8167 16.4673 10.5 16.2007 10.2334C15.934 9.9667 15.6173 9.83337 15.2507 9.83337C14.884 9.83337 14.5673 9.9667 14.3007 10.2334L9.60065 14.9334ZM11.0007 27.2C10.8451 27.2 10.7007 27.1889 10.5673 27.1667C10.434 27.1445 10.3007 27.1111 10.1673 27.0667C7.16732 26.0667 4.77843 24.2167 3.00065 21.5167C1.22287 18.8167 0.333984 15.9111 0.333984 12.8V6.50003C0.333984 5.94448 0.495095 5.44448 0.817318 5.00003C1.13954 4.55559 1.55621 4.23337 2.06732 4.03337L10.0673 1.03337C10.3784 0.922255 10.6895 0.866699 11.0007 0.866699C11.3118 0.866699 11.6229 0.922255 11.934 1.03337L19.934 4.03337C20.4451 4.23337 20.8618 4.55559 21.184 5.00003C21.5062 5.44448 21.6673 5.94448 21.6673 6.50003V12.8C21.6673 15.9111 20.7784 18.8167 19.0007 21.5167C17.2229 24.2167 14.834 26.0667 11.834 27.0667C11.7007 27.1111 11.5673 27.1445 11.434 27.1667C11.3007 27.1889 11.1562 27.2 11.0007 27.2Z" fill="#FAFAFA"/>
</svg>
