<svg width="24" height="24" viewBox="0 0 24 24" fill="none" xmlns="http://www.w3.org/2000/svg">
<path opacity="0.5" d="M22.4918 9.3818H23V8.3818C23 6.48238 22.4266 4.85425 21.2509 3.70258C20.078 2.55367 18.4294 2 16.5156 2H7.48444C5.57069 2 3.92346 2.55357 2.75123 3.69511C1.57552 4.84002 1 6.45728 1 8.33847V15.6615C1 17.5427 1.57552 19.16 2.75123 20.3049C3.92346 21.4464 5.57069 22 7.48444 22H16.5156C18.4293 22 20.0765 21.4464 21.2488 20.3049C22.4245 19.16 23 17.5427 23 15.6615V15.3495V14.3495H22.4867C22.7971 14.0434 22.9942 13.621 22.9999 13.143L23 13.143V13.131V10.6004C23 10.1177 22.8037 9.69063 22.4918 9.3818ZM18.1554 11.7877C18.1533 11.8585 18.1247 11.9219 18.0818 11.9671C18.0413 11.9244 18.0133 11.864 18.0133 11.7877C18.0133 11.7848 18.0134 11.7819 18.0135 11.7791C18.0135 11.779 18.0135 11.779 18.0135 11.779C18.0156 11.7036 18.0452 11.6444 18.087 11.6029C18.1274 11.6443 18.1555 11.7035 18.1556 11.779C18.1556 11.779 18.1556 11.779 18.1556 11.779C18.1556 11.779 18.1556 11.7791 18.1556 11.7791C18.1556 11.782 18.1555 11.7848 18.1554 11.7877ZM6.73771 7.89119H6.73778H6.73771Z" stroke="white" stroke-width="2"/>
</svg>
